<?xml version="1.0" encoding="utf-8"?>
<!-- Generator: Adobe Illustrator 16.0.0, SVG Export Plug-In . SVG Version: 6.00 Build 0)  -->
<!DOCTYPE svg PUBLIC "-//W3C//DTD SVG 1.1//EN" "http://www.w3.org/Graphics/SVG/1.1/DTD/svg11.dtd">
<svg version="1.1" id="Calque_1" xmlns="http://www.w3.org/2000/svg" xmlns:xlink="http://www.w3.org/1999/xlink" x="0px" y="0px"
	 width="450px" height="82px" viewBox="0 0 450 82" enable-background="new 0 0 450 82" xml:space="preserve">
<g>
	<path fill="#FFFFFF" d="M91.988,26.833c0-8.794,3.748-12.687,12.975-12.687c11.75,0,11.75,7.064,11.75,11.101v21.552
		c0,1.587,0,3.101,1.875,3.101c0.792,0,1.153-0.145,1.441-0.36v4.325c-0.433,0.071-2.019,0.36-3.532,0.36
		c-2.307,0-5.19,0-5.479-4.974h-0.144c-1.946,3.459-5.694,5.55-9.298,5.55c-7.208,0-10.524-4.325-10.524-11.245
		c0-5.406,2.307-9.154,7.281-10.668l8.145-2.45c4.397-1.37,4.397-2.595,4.397-5.839c0-3.604-2.163-5.694-6.199-5.694
		c-6.631,0-6.631,6.199-6.631,7.568v0.36H91.988z M110.657,32.744c-2.234,2.379-7.568,2.883-10.308,4.542
		c-1.946,1.225-2.955,2.739-2.955,6.127c0,3.893,1.37,6.631,5.478,6.631c3.964,0,7.785-3.388,7.785-7.353V32.744z"/>
	<path fill="#FFFFFF" d="M151.814,53.792h-5.767v-4.541h-0.145c-1.585,3.531-5.622,5.55-9.371,5.55
		c-10.164,0-10.164-7.712-10.164-12.254V15.156h6.055v26.67c0,2.955,0.216,7.784,5.694,7.784c3.244,0,7.641-2.162,7.641-7.784
		v-26.67h6.055V53.792z"/>
	<path fill="#FFFFFF" d="M186.628,53.792h-5.766v-4.758h-0.144c-0.793,2.884-4.181,5.767-8.362,5.767
		c-9.154,0-12.614-8.146-12.614-20.327c0-8.074,1.297-20.328,12.182-20.328c3.46,0,7.137,2.09,8.506,5.406h0.144V2.326h6.055V53.792
		z M173.149,49.61c6.704,0,7.785-6.343,7.785-15.136c0-7.497-1.298-15.137-7.785-15.137c-5.622,0-7.064,5.91-7.064,15.137
		C166.085,43.699,167.527,49.61,173.149,49.61z"/>
	<path fill="#FFFFFF" d="M196.359,2.326h6.055v6.919h-6.055V2.326z M196.359,15.156h6.055v38.636h-6.055V15.156z"/>
	<path fill="#FFFFFF" d="M224.182,14.146c11.172,0,13.912,9.443,13.912,20.328c0,10.884-2.812,20.327-13.912,20.327
		c-11.173,0-13.912-9.442-13.912-20.327C210.27,23.589,213.081,14.146,224.182,14.146z M231.75,34.474
		c0-8.362-1.225-15.57-7.712-15.57c-6.127,0-7.425,7.208-7.425,15.57c0,8.361,1.226,15.569,7.425,15.569
		C230.453,50.043,231.75,42.835,231.75,34.474z"/>
	<path fill="#97AEC4" d="M247.391,19.913h-5.622v-4.757h5.622v-4.541c0-5.839,2.521-8.866,8.361-8.866h4.397v5.19h-2.812
		c-2.595,0-3.894,1.009-3.894,3.676v4.541h6.633v4.757h-6.633v33.879h-6.054V19.913z"/>
	<path fill="#97AEC4" d="M264.76,26.833c0-8.794,3.748-12.687,12.976-12.687c11.75,0,11.75,7.064,11.75,11.101v21.552
		c0,1.587,0,3.101,1.874,3.101c0.793,0,1.152-0.145,1.441-0.36v4.325c-0.432,0.071-2.019,0.36-3.532,0.36
		c-2.308,0-5.189,0-5.479-4.974h-0.144c-1.946,3.459-5.695,5.55-9.3,5.55c-7.208,0-10.522-4.325-10.522-11.245
		c0-5.406,2.306-9.154,7.279-10.668l8.146-2.45c4.397-1.37,4.397-2.595,4.397-5.839c0-3.604-2.163-5.694-6.199-5.694
		c-6.631,0-6.631,6.199-6.631,7.568v0.36H264.76z M283.43,32.744c-2.234,2.379-7.569,2.883-10.307,4.542
		c-1.946,1.225-2.956,2.739-2.956,6.127c0,3.893,1.37,6.631,5.478,6.631c3.965,0,7.785-3.388,7.785-7.353V32.744z"/>
	<path fill="#97AEC4" d="M299.142,15.156h5.767v4.541h0.146c1.584-3.532,5.621-5.55,9.369-5.55c10.164,0,10.164,7.712,10.164,12.254
		v27.392h-6.055v-26.67c0-2.956-0.217-7.785-5.695-7.785c-3.242,0-7.641,2.162-7.641,7.785v26.67h-6.055V15.156z"/>
	<path fill="#97AEC4" d="M332.804,15.156h23.281v5.046l-17.299,28.4h17.155v5.19h-24.004v-4.758l17.518-28.688h-16.651V15.156z"/>
	<path fill="#97AEC4" d="M363.798,2.326h6.054v6.919h-6.054V2.326z M363.798,15.156h6.054v38.636h-6.054V15.156z"/>
	<path fill="#97AEC4" d="M379.582,15.156h5.767v4.541h0.145c1.585-3.532,5.623-5.55,9.371-5.55c10.163,0,10.163,7.712,10.163,12.254
		v27.392h-6.054v-26.67c0-2.956-0.217-7.785-5.695-7.785c-3.243,0-7.641,2.162-7.641,7.785v26.67h-6.056V15.156z"/>
	<path fill="#97AEC4" d="M419.443,35.194c0,5.91,0,14.849,7.424,14.849c5.767,0,6.561-6.055,6.561-8.938h6.054
		c0,4.109-2.45,13.696-12.976,13.696c-9.441,0-13.406-6.559-13.406-19.822c0-9.659,1.874-20.832,13.768-20.832
		c11.822,0,12.902,10.308,12.902,18.597v2.451H419.443z M433.428,30.438v-2.091c0-4.324-1.371-9.442-6.705-9.442
		c-6.344,0-7.063,7.785-7.063,10.091v1.442H433.428z"/>
</g>
<g>
	<path fill="#FFFFFF" d="M258.23,76.021l3.063-9.865h1.373l-3.782,11.666h-1.441l-2.546-9.796h-0.044l-2.591,9.796h-1.622
		l-3.559-11.666h1.353l3.019,9.954l2.701-9.954h1.51L258.23,76.021z"/>
	<path fill="#FFFFFF" d="M266.814,72.306c-0.023,2.521,1.329,4.615,3.919,4.615c1.756,0,3.13-0.967,3.535-2.68h1.508
		c-0.675,2.208-2.071,3.896-5.043,3.896c-3.739,0-5.359-2.656-5.359-6.103c0-3.4,2.026-6.192,5.359-6.192
		c3.196,0,5.157,2.274,5.134,6.464H266.814z M274.426,71.179c0-2.274-1.262-4.121-3.692-4.121c-2.388,0-3.648,1.915-3.919,4.121
		H274.426z"/>
	<path fill="#FFFFFF" d="M281.366,77.822h-1.352V61.608h1.352v6.418c0.855-1.419,2.521-2.185,4.165-2.185
		c3.559,0,5.203,2.905,5.203,6.17c0,3.446-1.51,6.125-5.27,6.125c-1.487,0-3.266-0.833-4.054-2.364h-0.045V77.822z M285.307,76.921
		c2.274,0,3.964-1.644,3.986-4.57c0.112-2.928-1.194-5.293-3.986-5.293c-2.455,0-3.94,2.253-3.94,4.887
		C281.366,74.759,282.762,76.921,285.307,76.921z"/>
	<path fill="#FFFFFF" d="M302.72,63.612v-2.004h1.486v2.004H302.72z M302.787,77.822V66.156h1.352v11.666H302.787z"/>
	<path fill="#FFFFFF" d="M310.287,77.822h-1.351V66.156h1.351v1.622c1.081-1.148,2.14-1.937,3.762-1.937
		c1.419,0,2.724,0.45,3.557,1.666c0.563,0.834,0.587,1.712,0.587,2.681v7.634h-1.352v-7.611c0-2.095-0.855-3.153-3.017-3.153
		c-1.667,0-2.816,1.081-3.244,2.274c-0.27,0.744-0.293,1.397-0.293,2.207V77.822z"/>
	<path fill="#FFFFFF" d="M325.132,78.498c0,1.306-0.698,2.117-1.644,2.409v-0.833c0.359-0.226,0.766-0.586,0.766-1.486v-0.766
		h-0.766v-1.981h1.644V78.498z"/>
	<path fill="#FFFFFF" d="M343.398,71.021c0.495-0.045,1.329-0.18,1.779-0.383s0.495-0.811,0.495-1.216
		c0-1.374-0.81-2.365-2.905-2.365c-1.869,0-3.152,0.608-3.399,2.636h-1.374c0.202-2.748,2.252-3.852,4.796-3.852
		c2.364,0,4.234,0.923,4.234,3.626v6.351c0,1.058,0.271,1.306,1.419,0.901v1.058c-0.203,0.068-0.677,0.226-1.06,0.226
		c-0.225,0-0.404-0.023-0.607-0.067c-0.901-0.136-1.059-0.924-1.08-1.734c-1.127,1.262-2.658,1.936-4.347,1.936
		c-2.05,0-3.896-1.103-3.896-3.354c0-1.959,1.352-3.153,4.076-3.514L343.398,71.021z M345.673,71.697
		c-1.148,0.473-2.319,0.563-3.49,0.653c-2.05,0.157-3.289,0.899-3.289,2.477c0,1.418,1.239,2.094,2.523,2.094
		c2.139,0,4.256-1.035,4.256-3.399V71.697z"/>
	<path fill="#FFFFFF" d="M359.818,66.156h1.353v11.666h-1.353v-1.621c-0.721,0.811-1.711,1.936-3.76,1.936
		c-3.108,0-4.144-1.868-4.144-4.3v-7.681h1.351v7.657c0,2.005,0.879,3.107,2.995,3.107c2.229,0,3.558-1.846,3.558-4.413V66.156z"/>
	<path fill="#FFFFFF" d="M374.797,61.608h1.352v16.214h-1.352v-2.05h-0.045c-0.788,1.531-2.567,2.364-4.054,2.364
		c-3.761,0-5.27-2.679-5.27-6.125c0-3.265,1.645-6.17,5.202-6.17c1.645,0,3.312,0.766,4.166,2.185V61.608z M370.856,67.058
		c-2.792,0-4.099,2.365-3.986,5.293c0.023,2.927,1.712,4.57,3.986,4.57c2.544,0,3.94-2.162,3.94-4.977
		C374.797,69.311,373.311,67.058,370.856,67.058z"/>
	<path fill="#FFFFFF" d="M381.039,63.612v-2.004h1.486v2.004H381.039z M381.106,77.822V66.156h1.352v11.666H381.106z"/>
	<path fill="#FFFFFF" d="M386.491,71.99c0-3.4,1.801-6.148,5.404-6.148c3.648,0,5.404,2.725,5.404,6.148
		c0,3.693-2.139,6.146-5.404,6.146C388.923,78.093,386.491,76.066,386.491,71.99z M391.896,67.058c-2.838,0-3.963,2.41-3.963,4.933
		c0,2.904,1.373,4.931,3.963,4.931c2.837,0,3.964-2.432,3.964-4.931C395.836,69.243,394.755,67.058,391.896,67.058z"/>
	<path fill="#FFFFFF" d="M407.979,71.99c0-3.4,1.801-6.148,5.404-6.148c3.648,0,5.405,2.725,5.405,6.148
		c0,3.693-2.14,6.146-5.405,6.146C410.411,78.093,407.979,76.066,407.979,71.99z M413.384,67.058c-2.838,0-3.963,2.41-3.963,4.933
		c0,2.904,1.373,4.931,3.963,4.931c2.837,0,3.964-2.432,3.964-4.931C417.325,69.243,416.243,67.058,413.384,67.058z"/>
	<path fill="#FFFFFF" d="M430.525,66.156h1.352v11.666h-1.352v-1.621c-0.722,0.811-1.712,1.936-3.761,1.936
		c-3.107,0-4.144-1.868-4.144-4.3v-7.681h1.351v7.657c0,2.005,0.879,3.107,2.995,3.107c2.229,0,3.559-1.846,3.559-4.413V66.156z"/>
	<path fill="#FFFFFF" d="M440.595,77.867c-0.315,0.068-0.901,0.27-1.555,0.27c-1.328,0-2.071-0.584-2.071-2.318v-8.535h-1.644
		v-1.127h1.644v-3.242h1.352v3.242h2.183v1.127h-2.183v7.994c0,1.148,0.045,1.644,1.17,1.644c0.361,0,0.744-0.066,1.104-0.157
		V77.867z"/>
</g>
<g>
	<g>
		<path fill="#FFFFFF" d="M81.951,14.127c0,0-0.48-0.382-1.523-0.795c-1.026-0.401-2.695-0.809-4.684-0.338
			c-1.984,0.466-4.093,1.958-5.806,4.236c-1.734,2.268-3.19,5.198-4.448,8.516c-0.641,1.656-1.193,3.43-1.734,5.272
			c-0.252,0.928-0.509,1.871-0.77,2.83c-0.267,1.007-0.561,1.988-0.878,2.992c-1.31,3.982-2.833,8.172-5.482,12.136
			c-0.678,0.982-1.43,1.952-2.376,2.832c-0.93,0.873-2.099,1.69-3.577,2.057c-1.487,0.363-3.168,0.021-4.384-0.723
			c-1.264-0.714-2.183-1.702-3.006-2.696c-1.618-2.02-2.76-4.234-3.789-6.476c-1.025-2.271-1.867-4.49-2.658-6.915
			c-1.348-4.518-2.994-9.01-5.022-13.156c-1.024-2.066-2.147-4.057-3.439-5.828c-1.285-1.744-2.821-3.333-4.504-3.963
			c-0.834-0.313-1.666-0.351-2.486-0.121c-0.82,0.229-1.621,0.727-2.352,1.353c-1.468,1.266-2.65,2.967-3.667,4.676
			c-2.008,3.471-3.463,7.083-4.704,10.434c-2.416,6.745-4.042,12.545-5.108,16.611c-1.063,4.075-1.67,6.404-1.67,6.404
			s0.093-0.595,0.268-1.71c0.185-1.114,0.427-2.754,0.83-4.823c0.393-2.072,0.888-4.585,1.531-7.457
			c0.642-2.871,1.427-6.103,2.509-9.577c1.081-3.473,2.369-7.226,4.387-10.988c1.029-1.867,2.211-3.773,3.976-5.425
			c0.881-0.816,1.957-1.563,3.269-1.966c1.304-0.415,2.816-0.371,4.103,0.093c1.3,0.448,2.387,1.206,3.337,2.035
			c0.95,0.836,1.769,1.768,2.519,2.738c1.5,1.942,2.71,4.054,3.799,6.223c2.161,4.352,3.883,8.911,5.3,13.606
			c0.686,2.152,1.531,4.448,2.468,6.55c0.946,2.116,2.016,4.18,3.356,5.869c0.667,0.832,1.409,1.585,2.19,2.041
			c0.783,0.485,1.552,0.628,2.339,0.478c1.62-0.353,3.198-1.986,4.406-3.684c2.438-3.512,4.135-7.532,5.525-11.342
			c0.341-0.956,0.667-1.919,0.947-2.844c0.305-0.968,0.592-1.927,0.907-2.86c0.649-1.86,1.307-3.649,2.054-5.325
			c1.445-3.365,3.179-6.314,5.182-8.577c1.971-2.278,4.372-3.748,6.542-4.095c2.184-0.374,3.869,0.272,4.867,0.759
			C81.511,13.703,81.951,14.127,81.951,14.127z"/>
	</g>
	<g>
		<path fill="#FFFFFF" d="M58.532,31.025c0,0,0.87-0.334,2.174-0.572c1.304-0.266,3.043-0.425,4.782-0.428
			c1.739,0.001,3.478,0.158,4.782,0.425c1.304,0.238,2.174,0.575,2.174,0.574s-0.87,0.336-2.174,0.574
			c-1.304,0.267-3.043,0.425-4.782,0.426c-1.739-0.003-3.478-0.162-4.782-0.428C59.402,31.359,58.532,31.024,58.532,31.025z"/>
	</g>
	<g>
		<path fill="#FFFFFF" d="M3.04,31.025c0,0,0.847-0.334,2.117-0.572c1.271-0.266,2.964-0.425,4.658-0.428
			c1.694,0.001,3.388,0.158,4.659,0.425c1.27,0.238,2.117,0.575,2.117,0.574s-0.847,0.336-2.117,0.574
			c-1.271,0.267-2.964,0.425-4.658,0.426c-1.694-0.003-3.388-0.162-4.659-0.428C3.887,31.359,3.04,31.024,3.04,31.025z"/>
	</g>
</g>
<g>
</g>
<g>
</g>
<g>
</g>
<g>
</g>
<g>
</g>
<g>
</g>
</svg>
