<svg xmlns="http://www.w3.org/2000/svg" xmlns:xlink="http://www.w3.org/1999/xlink" width="500" zoomAndPan="magnify" viewBox="0 0 375 374.999991" height="500" preserveAspectRatio="xMidYMid meet" version="1.0"><defs><g/><clipPath id="326ee8a0c4"><path d="M 132.695312 103.195312 L 242.195312 103.195312 L 242.195312 212.695312 L 132.695312 212.695312 Z M 132.695312 103.195312 " clip-rule="nonzero"/></clipPath></defs><rect x="-37.5" width="450" fill="#ffffff" y="-37.499999" height="449.999989" fill-opacity="1"/><rect x="-37.5" width="450" fill="#ffffff" y="-37.499999" height="449.999989" fill-opacity="1"/><g clip-path="url(#326ee8a0c4)"><path fill="#5271ff" d="M 236.722656 187.144531 L 138.171875 187.144531 C 137.164062 187.144531 136.347656 186.324219 136.347656 185.320312 L 136.347656 179.847656 L 238.546875 179.847656 L 238.546875 185.320312 C 238.546875 186.324219 237.726562 187.144531 236.722656 187.144531 Z M 196.570312 198.097656 L 178.320312 198.097656 L 178.320312 190.796875 L 196.570312 190.796875 Z M 207.519531 201.746094 C 208.527344 201.746094 209.347656 202.566406 209.347656 203.570312 L 209.347656 209.046875 L 165.546875 209.046875 L 165.546875 203.570312 C 165.546875 202.566406 166.367188 201.746094 167.371094 201.746094 Z M 138.171875 121.445312 L 145.472656 121.445312 L 145.472656 123.269531 L 139.996094 123.269531 C 138.992188 123.269531 138.171875 124.089844 138.171875 125.097656 L 138.171875 172.546875 C 138.171875 173.550781 138.992188 174.371094 139.996094 174.371094 L 234.894531 174.371094 C 235.902344 174.371094 236.722656 173.550781 236.722656 172.546875 L 236.722656 125.097656 C 236.722656 124.089844 235.902344 123.269531 234.894531 123.269531 L 229.421875 123.269531 L 229.421875 121.445312 L 236.722656 121.445312 C 237.726562 121.445312 238.546875 122.265625 238.546875 123.269531 L 238.546875 176.195312 L 136.347656 176.195312 L 136.347656 123.269531 C 136.347656 122.265625 137.164062 121.445312 138.171875 121.445312 Z M 150.945312 106.847656 L 223.945312 106.847656 C 224.949219 106.847656 225.769531 107.664062 225.769531 108.671875 L 225.769531 114.144531 L 149.121094 114.144531 L 149.121094 108.671875 C 149.121094 107.664062 149.941406 106.847656 150.945312 106.847656 Z M 150.945312 167.070312 L 223.945312 167.070312 C 226.96875 167.070312 229.421875 164.617188 229.421875 161.597656 L 229.421875 126.921875 L 233.070312 126.921875 L 233.070312 170.722656 L 141.820312 170.722656 L 141.820312 126.921875 L 145.472656 126.921875 L 145.472656 161.597656 C 145.472656 164.617188 147.921875 167.070312 150.945312 167.070312 Z M 225.769531 161.597656 C 225.769531 162.601562 224.949219 163.421875 223.945312 163.421875 L 150.945312 163.421875 C 149.941406 163.421875 149.121094 162.601562 149.121094 161.597656 L 149.121094 117.796875 L 225.769531 117.796875 Z M 236.722656 117.796875 L 229.421875 117.796875 L 229.421875 108.671875 C 229.421875 105.648438 226.96875 103.195312 223.945312 103.195312 L 150.945312 103.195312 C 147.921875 103.195312 145.472656 105.648438 145.472656 108.671875 L 145.472656 117.796875 L 138.171875 117.796875 C 135.148438 117.796875 132.695312 120.25 132.695312 123.269531 L 132.695312 185.320312 C 132.695312 188.34375 135.148438 190.796875 138.171875 190.796875 L 174.671875 190.796875 L 174.671875 198.097656 L 167.371094 198.097656 C 164.347656 198.097656 161.894531 200.546875 161.894531 203.570312 L 161.894531 210.871094 C 161.894531 211.875 162.714844 212.695312 163.722656 212.695312 L 211.171875 212.695312 C 212.175781 212.695312 212.996094 211.875 212.996094 210.871094 L 212.996094 203.570312 C 212.996094 200.546875 210.542969 198.097656 207.519531 198.097656 L 200.222656 198.097656 L 200.222656 190.796875 L 236.722656 190.796875 C 239.742188 190.796875 242.195312 188.34375 242.195312 185.320312 L 242.195312 123.269531 C 242.195312 120.25 239.742188 117.796875 236.722656 117.796875 " fill-opacity="1" fill-rule="nonzero"/></g><path fill="#5271ff" d="M 229.421875 181.671875 L 225.769531 181.671875 C 224.765625 181.671875 223.945312 182.492188 223.945312 183.496094 C 223.945312 184.5 224.765625 185.320312 225.769531 185.320312 L 229.421875 185.320312 C 230.425781 185.320312 231.246094 184.5 231.246094 183.496094 C 231.246094 182.492188 230.425781 181.671875 229.421875 181.671875 " fill-opacity="1" fill-rule="nonzero"/><path fill="#5271ff" d="M 156.421875 108.671875 L 152.769531 108.671875 L 152.769531 112.320312 L 156.421875 112.320312 L 156.421875 108.671875 " fill-opacity="1" fill-rule="nonzero"/><path fill="#5271ff" d="M 163.722656 108.671875 L 160.070312 108.671875 L 160.070312 112.320312 L 163.722656 112.320312 L 163.722656 108.671875 " fill-opacity="1" fill-rule="nonzero"/><path fill="#5271ff" d="M 171.019531 108.671875 L 167.371094 108.671875 L 167.371094 112.320312 L 171.019531 112.320312 L 171.019531 108.671875 " fill-opacity="1" fill-rule="nonzero"/><path fill="#5271ff" d="M 161.894531 125.097656 L 165.546875 125.097656 C 166.550781 125.097656 167.371094 124.277344 167.371094 123.269531 C 167.371094 122.265625 166.550781 121.445312 165.546875 121.445312 L 161.894531 121.445312 C 160.890625 121.445312 160.070312 122.265625 160.070312 123.269531 C 160.070312 124.277344 160.890625 125.097656 161.894531 125.097656 " fill-opacity="1" fill-rule="nonzero"/><path fill="#5271ff" d="M 171.019531 125.097656 L 172.847656 125.097656 C 173.851562 125.097656 174.671875 124.277344 174.671875 123.269531 C 174.671875 122.265625 173.851562 121.445312 172.847656 121.445312 L 171.019531 121.445312 C 170.015625 121.445312 169.195312 122.265625 169.195312 123.269531 C 169.195312 124.277344 170.015625 125.097656 171.019531 125.097656 " fill-opacity="1" fill-rule="nonzero"/><path fill="#5271ff" d="M 161.894531 148.820312 L 165.546875 148.820312 C 166.550781 148.820312 167.371094 148 167.371094 146.996094 C 167.371094 145.992188 166.550781 145.171875 165.546875 145.171875 L 161.894531 145.171875 C 160.890625 145.171875 160.070312 145.992188 160.070312 146.996094 C 160.070312 148 160.890625 148.820312 161.894531 148.820312 " fill-opacity="1" fill-rule="nonzero"/><path fill="#5271ff" d="M 174.671875 146.996094 C 174.671875 145.992188 173.851562 145.171875 172.847656 145.171875 L 171.019531 145.171875 C 170.015625 145.171875 169.195312 145.992188 169.195312 146.996094 C 169.195312 148 170.015625 148.820312 171.019531 148.820312 L 172.847656 148.820312 C 173.851562 148.820312 174.671875 148 174.671875 146.996094 " fill-opacity="1" fill-rule="nonzero"/><path fill="#5271ff" d="M 163.722656 128.746094 C 163.722656 129.75 164.539062 130.570312 165.546875 130.570312 L 176.496094 130.570312 C 177.5 130.570312 178.320312 129.75 178.320312 128.746094 C 178.320312 127.742188 177.5 126.921875 176.496094 126.921875 L 165.546875 126.921875 C 164.539062 126.921875 163.722656 127.742188 163.722656 128.746094 " fill-opacity="1" fill-rule="nonzero"/><path fill="#5271ff" d="M 165.546875 136.046875 L 176.496094 136.046875 C 177.5 136.046875 178.320312 135.226562 178.320312 134.222656 C 178.320312 133.214844 177.5 132.394531 176.496094 132.394531 L 165.546875 132.394531 C 164.539062 132.394531 163.722656 133.214844 163.722656 134.222656 C 163.722656 135.226562 164.539062 136.046875 165.546875 136.046875 " fill-opacity="1" fill-rule="nonzero"/><path fill="#5271ff" d="M 183.796875 136.046875 L 205.695312 136.046875 C 206.699219 136.046875 207.519531 135.226562 207.519531 134.222656 C 207.519531 133.214844 206.699219 132.394531 205.695312 132.394531 L 183.796875 132.394531 C 182.789062 132.394531 181.972656 133.214844 181.972656 134.222656 C 181.972656 135.226562 182.789062 136.046875 183.796875 136.046875 " fill-opacity="1" fill-rule="nonzero"/><path fill="#5271ff" d="M 165.546875 141.519531 L 176.496094 141.519531 C 177.5 141.519531 178.320312 140.699219 178.320312 139.695312 C 178.320312 138.691406 177.5 137.871094 176.496094 137.871094 L 165.546875 137.871094 C 164.539062 137.871094 163.722656 138.691406 163.722656 139.695312 C 163.722656 140.699219 164.539062 141.519531 165.546875 141.519531 " fill-opacity="1" fill-rule="nonzero"/><path fill="#5271ff" d="M 183.796875 141.519531 L 212.996094 141.519531 C 214 141.519531 214.820312 140.699219 214.820312 139.695312 C 214.820312 138.691406 214 137.871094 212.996094 137.871094 L 183.796875 137.871094 C 182.789062 137.871094 181.972656 138.691406 181.972656 139.695312 C 181.972656 140.699219 182.789062 141.519531 183.796875 141.519531 " fill-opacity="1" fill-rule="nonzero"/><path fill="#5271ff" d="M 167.371094 150.644531 L 165.546875 150.644531 C 164.539062 150.644531 163.722656 151.464844 163.722656 152.472656 C 163.722656 153.476562 164.539062 154.296875 165.546875 154.296875 L 167.371094 154.296875 C 168.375 154.296875 169.195312 153.476562 169.195312 152.472656 C 169.195312 151.464844 168.375 150.644531 167.371094 150.644531 " fill-opacity="1" fill-rule="nonzero"/><path fill="#5271ff" d="M 189.269531 150.644531 L 174.671875 150.644531 C 173.664062 150.644531 172.847656 151.464844 172.847656 152.472656 C 172.847656 153.476562 173.664062 154.296875 174.671875 154.296875 L 189.269531 154.296875 C 190.277344 154.296875 191.097656 153.476562 191.097656 152.472656 C 191.097656 151.464844 190.277344 150.644531 189.269531 150.644531 " fill-opacity="1" fill-rule="nonzero"/><path fill="#5271ff" d="M 207.519531 150.644531 L 196.570312 150.644531 C 195.566406 150.644531 194.746094 151.464844 194.746094 152.472656 C 194.746094 153.476562 195.566406 154.296875 196.570312 154.296875 L 207.519531 154.296875 C 208.527344 154.296875 209.347656 153.476562 209.347656 152.472656 C 209.347656 151.464844 208.527344 150.644531 207.519531 150.644531 " fill-opacity="1" fill-rule="nonzero"/><path fill="#5271ff" d="M 167.371094 156.121094 L 165.546875 156.121094 C 164.539062 156.121094 163.722656 156.941406 163.722656 157.945312 C 163.722656 158.949219 164.539062 159.769531 165.546875 159.769531 L 167.371094 159.769531 C 168.375 159.769531 169.195312 158.949219 169.195312 157.945312 C 169.195312 156.941406 168.375 156.121094 167.371094 156.121094 " fill-opacity="1" fill-rule="nonzero"/><path fill="#5271ff" d="M 189.269531 156.121094 L 174.671875 156.121094 C 173.664062 156.121094 172.847656 156.941406 172.847656 157.945312 C 172.847656 158.949219 173.664062 159.769531 174.671875 159.769531 L 189.269531 159.769531 C 190.277344 159.769531 191.097656 158.949219 191.097656 157.945312 C 191.097656 156.941406 190.277344 156.121094 189.269531 156.121094 " fill-opacity="1" fill-rule="nonzero"/><path fill="#5271ff" d="M 200.222656 156.121094 L 196.570312 156.121094 C 195.566406 156.121094 194.746094 156.941406 194.746094 157.945312 C 194.746094 158.949219 195.566406 159.769531 196.570312 159.769531 L 200.222656 159.769531 C 201.226562 159.769531 202.046875 158.949219 202.046875 157.945312 C 202.046875 156.941406 201.226562 156.121094 200.222656 156.121094 " fill-opacity="1" fill-rule="nonzero"/><path fill="#5271ff" d="M 183.796875 130.570312 L 187.445312 130.570312 C 188.449219 130.570312 189.269531 129.75 189.269531 128.746094 C 189.269531 127.742188 188.449219 126.921875 187.445312 126.921875 L 183.796875 126.921875 C 182.789062 126.921875 181.972656 127.742188 181.972656 128.746094 C 181.972656 129.75 182.789062 130.570312 183.796875 130.570312 " fill-opacity="1" fill-rule="nonzero"/><g fill="#000000" fill-opacity="1"><g transform="translate(54.515626, 247.254212)"><g><path d="M 2.546875 -22.421875 L 2.546875 -27.546875 L 10.109375 -27.546875 L 10.109375 -22.421875 Z M 2.546875 0 L 2.546875 -20.0625 L 10.109375 -20.0625 L 10.109375 0 Z M 2.546875 0 "/></g></g></g><g fill="#000000" fill-opacity="1"><g transform="translate(67.167046, 247.254212)"><g><path d="M 16.109375 -20.515625 C 18.441406 -20.515625 20.191406 -19.867188 21.359375 -18.578125 C 22.523438 -17.285156 23.109375 -15.425781 23.109375 -13 L 23.109375 0 L 15.546875 0 L 15.546875 -12.078125 C 15.546875 -12.941406 15.320312 -13.632812 14.875 -14.15625 C 14.4375 -14.675781 13.8125 -14.9375 13 -14.9375 C 12.0625 -14.9375 11.300781 -14.628906 10.71875 -14.015625 C 10.132812 -13.410156 9.84375 -12.664062 9.84375 -11.78125 L 9.84375 0 L 2.28125 0 L 2.28125 -20.0625 L 8.46875 -20.0625 L 8.96875 -17.03125 C 9.75 -18.09375 10.78125 -18.9375 12.0625 -19.5625 C 13.34375 -20.195312 14.691406 -20.515625 16.109375 -20.515625 Z M 16.109375 -20.515625 "/></g></g></g><g fill="#000000" fill-opacity="1"><g transform="translate(92.507869, 247.254212)"><g><path d="M 10.453125 -28 C 11.003906 -28 11.695312 -27.929688 12.53125 -27.796875 C 13.375 -27.660156 14.046875 -27.503906 14.546875 -27.328125 L 14.546875 -22.875 L 12.8125 -22.875 C 12 -22.875 11.4375 -22.722656 11.125 -22.421875 C 10.820312 -22.117188 10.671875 -21.597656 10.671875 -20.859375 L 10.671875 -20.0625 L 14.546875 -20.0625 L 14.546875 -14.9375 L 10.671875 -14.9375 L 10.671875 0 L 3.109375 0 L 3.109375 -14.9375 L 0.296875 -14.9375 L 0.296875 -20.0625 L 3.109375 -20.0625 L 3.109375 -20.90625 C 3.109375 -23.488281 3.742188 -25.316406 5.015625 -26.390625 C 6.285156 -27.460938 8.097656 -28 10.453125 -28 Z M 10.453125 -28 "/></g></g></g><g fill="#000000" fill-opacity="1"><g transform="translate(107.286848, 247.254212)"><g><path d="M 12.65625 -20.515625 C 16.175781 -20.515625 18.941406 -19.617188 20.953125 -17.828125 C 22.972656 -16.046875 23.984375 -13.445312 23.984375 -10.03125 C 23.984375 -6.613281 22.972656 -4.007812 20.953125 -2.21875 C 18.941406 -0.4375 16.175781 0.453125 12.65625 0.453125 C 9.132812 0.453125 6.375 -0.429688 4.375 -2.203125 C 2.375 -3.972656 1.375 -6.582031 1.375 -10.03125 C 1.375 -13.476562 2.375 -16.085938 4.375 -17.859375 C 6.375 -19.628906 9.132812 -20.515625 12.65625 -20.515625 Z M 12.65625 -15.390625 C 10.175781 -15.390625 8.9375 -13.957031 8.9375 -11.09375 L 8.9375 -8.9375 C 8.9375 -6.09375 10.175781 -4.671875 12.65625 -4.671875 C 15.164062 -4.671875 16.421875 -6.09375 16.421875 -8.9375 L 16.421875 -11.09375 C 16.421875 -13.957031 15.164062 -15.390625 12.65625 -15.390625 Z M 12.65625 -15.390625 "/></g></g></g><g fill="#000000" fill-opacity="1"><g transform="translate(132.627671, 247.254212)"><g><path d="M 11.8125 -20.515625 C 14.5 -20.515625 16.773438 -19.988281 18.640625 -18.9375 C 20.503906 -17.882812 21.4375 -16.257812 21.4375 -14.0625 L 14.40625 -14.0625 C 14.40625 -14.789062 14.070312 -15.3125 13.40625 -15.625 C 12.957031 -15.875 12.390625 -16 11.703125 -16 C 9.878906 -16 8.96875 -15.566406 8.96875 -14.703125 C 8.96875 -14.222656 9.285156 -13.878906 9.921875 -13.671875 C 10.554688 -13.472656 11.59375 -13.257812 13.03125 -13.03125 C 14.800781 -12.78125 16.28125 -12.484375 17.46875 -12.140625 C 18.664062 -11.796875 19.707031 -11.1875 20.59375 -10.3125 C 21.476562 -9.4375 21.921875 -8.21875 21.921875 -6.65625 C 21.921875 -4.09375 20.960938 -2.265625 19.046875 -1.171875 C 17.140625 -0.0859375 14.640625 0.453125 11.546875 0.453125 C 9.773438 0.453125 8.101562 0.207031 6.53125 -0.28125 C 4.96875 -0.78125 3.691406 -1.546875 2.703125 -2.578125 C 1.710938 -3.617188 1.21875 -4.9375 1.21875 -6.53125 L 8.25 -6.53125 L 8.25 -6.390625 C 8.269531 -5.523438 8.628906 -4.921875 9.328125 -4.578125 C 10.023438 -4.234375 10.765625 -4.0625 11.546875 -4.0625 C 13.648438 -4.0625 14.703125 -4.554688 14.703125 -5.546875 C 14.703125 -6.054688 14.375 -6.421875 13.71875 -6.640625 C 13.0625 -6.867188 11.984375 -7.113281 10.484375 -7.375 C 8.691406 -7.675781 7.21875 -8.003906 6.0625 -8.359375 C 4.90625 -8.710938 3.894531 -9.3125 3.03125 -10.15625 C 2.175781 -11.007812 1.75 -12.195312 1.75 -13.71875 C 1.75 -16.175781 2.675781 -17.921875 4.53125 -18.953125 C 6.394531 -19.992188 8.820312 -20.515625 11.8125 -20.515625 Z M 11.8125 -20.515625 "/></g></g></g><g fill="#000000" fill-opacity="1"><g transform="translate(155.840922, 247.254212)"><g/></g></g><g fill="#000000" fill-opacity="1"><g transform="translate(168.492342, 247.254212)"><g><path d="M 1.484375 -7.453125 L 1.484375 -13.453125 L 11.171875 -13.453125 L 11.171875 -7.453125 Z M 1.484375 -7.453125 "/></g></g></g><g fill="#000000" fill-opacity="1"><g transform="translate(181.143762, 247.254212)"><g/></g></g><g fill="#000000" fill-opacity="1"><g transform="translate(193.795182, 247.254212)"><g><path d="M 28.921875 -20.515625 C 31.203125 -20.515625 32.910156 -19.863281 34.046875 -18.5625 C 35.191406 -17.257812 35.765625 -15.40625 35.765625 -13 L 35.765625 0 L 28.203125 0 L 28.203125 -12.078125 C 28.203125 -12.941406 27.988281 -13.632812 27.5625 -14.15625 C 27.144531 -14.675781 26.554688 -14.9375 25.796875 -14.9375 C 24.910156 -14.9375 24.1875 -14.628906 23.625 -14.015625 C 23.070312 -13.410156 22.796875 -12.664062 22.796875 -11.78125 L 22.796875 0 L 15.234375 0 L 15.234375 -12.078125 C 15.234375 -12.941406 15.023438 -13.632812 14.609375 -14.15625 C 14.191406 -14.675781 13.601562 -14.9375 12.84375 -14.9375 C 11.957031 -14.9375 11.234375 -14.628906 10.671875 -14.015625 C 10.117188 -13.410156 9.84375 -12.664062 9.84375 -11.78125 L 9.84375 0 L 2.28125 0 L 2.28125 -20.0625 L 8.46875 -20.0625 L 8.96875 -17.0625 C 9.726562 -18.125 10.734375 -18.960938 11.984375 -19.578125 C 13.242188 -20.203125 14.566406 -20.515625 15.953125 -20.515625 C 18.972656 -20.515625 21.003906 -19.363281 22.046875 -17.0625 C 22.828125 -18.125 23.832031 -18.960938 25.0625 -19.578125 C 26.289062 -20.203125 27.578125 -20.515625 28.921875 -20.515625 Z M 28.921875 -20.515625 "/></g></g></g><g fill="#000000" fill-opacity="1"><g transform="translate(231.787424, 247.254212)"><g><path d="M 9 -22.5 L 12.546875 -27.546875 L 19.84375 -27.546875 L 19.90625 -27.390625 L 13.875 -22.5 Z M 12.65625 -20.515625 C 16.320312 -20.515625 19.125 -19.65625 21.0625 -17.9375 C 23.007812 -16.21875 23.984375 -13.582031 23.984375 -10.03125 L 23.984375 -8.734375 L 8.9375 -8.734375 C 8.9375 -7.296875 9.257812 -6.207031 9.90625 -5.46875 C 10.550781 -4.738281 11.566406 -4.375 12.953125 -4.375 C 14.222656 -4.375 15.15625 -4.640625 15.75 -5.171875 C 16.34375 -5.703125 16.640625 -6.410156 16.640625 -7.296875 L 23.984375 -7.296875 C 23.984375 -4.859375 23.054688 -2.957031 21.203125 -1.59375 C 19.359375 -0.226562 16.660156 0.453125 13.109375 0.453125 C 9.390625 0.453125 6.503906 -0.410156 4.453125 -2.140625 C 2.398438 -3.878906 1.375 -6.507812 1.375 -10.03125 C 1.375 -13.476562 2.375 -16.085938 4.375 -17.859375 C 6.375 -19.628906 9.132812 -20.515625 12.65625 -20.515625 Z M 12.953125 -15.6875 C 10.578125 -15.6875 9.25 -14.5625 8.96875 -12.3125 L 16.34375 -12.3125 C 16.34375 -13.351562 16.039062 -14.175781 15.4375 -14.78125 C 14.84375 -15.382812 14.015625 -15.6875 12.953125 -15.6875 Z M 12.953125 -15.6875 "/></g></g></g><g fill="#000000" fill-opacity="1"><g transform="translate(257.128247, 247.254212)"><g><path d="M 16.875 0 L 16.21875 -2.84375 C 14.75 -0.644531 12.625 0.453125 9.84375 0.453125 C 7.132812 0.453125 5.046875 -0.429688 3.578125 -2.203125 C 2.109375 -3.972656 1.375 -6.59375 1.375 -10.0625 C 1.375 -13.507812 2.109375 -16.113281 3.578125 -17.875 C 5.046875 -19.632812 7.132812 -20.515625 9.84375 -20.515625 C 12.144531 -20.515625 14.019531 -19.742188 15.46875 -18.203125 L 15.46875 -27.546875 L 23.03125 -27.546875 L 23.03125 0 Z M 12.203125 -14.9375 C 10.023438 -14.9375 8.9375 -13.628906 8.9375 -11.015625 L 8.9375 -9 C 8.9375 -6.414062 10.023438 -5.125 12.203125 -5.125 C 13.316406 -5.125 14.148438 -5.515625 14.703125 -6.296875 C 15.265625 -7.085938 15.546875 -8.117188 15.546875 -9.390625 L 15.546875 -10.640625 C 15.546875 -11.910156 15.265625 -12.941406 14.703125 -13.734375 C 14.148438 -14.535156 13.316406 -14.9375 12.203125 -14.9375 Z M 12.203125 -14.9375 "/></g></g></g><g fill="#000000" fill-opacity="1"><g transform="translate(282.469058, 247.254212)"><g><path d="M 2.546875 -22.421875 L 2.546875 -27.546875 L 10.109375 -27.546875 L 10.109375 -22.421875 Z M 2.546875 0 L 2.546875 -20.0625 L 10.109375 -20.0625 L 10.109375 0 Z M 2.546875 0 "/></g></g></g><g fill="#000000" fill-opacity="1"><g transform="translate(295.120478, 247.254212)"><g><path d="M 12.203125 -20.515625 C 15.265625 -20.515625 17.757812 -20 19.6875 -18.96875 C 21.613281 -17.945312 22.578125 -16.285156 22.578125 -13.984375 L 22.578125 -6.15625 C 22.578125 -5.726562 22.675781 -5.375 22.875 -5.09375 C 23.082031 -4.8125 23.382812 -4.671875 23.78125 -4.671875 L 25.15625 -4.671875 L 25.15625 -0.296875 C 25.082031 -0.253906 24.882812 -0.175781 24.5625 -0.0625 C 24.25 0.0507812 23.800781 0.164062 23.21875 0.28125 C 22.632812 0.394531 21.960938 0.453125 21.203125 0.453125 C 19.734375 0.453125 18.523438 0.234375 17.578125 -0.203125 C 16.628906 -0.648438 15.976562 -1.265625 15.625 -2.046875 C 14.65625 -1.285156 13.578125 -0.675781 12.390625 -0.21875 C 11.203125 0.226562 9.804688 0.453125 8.203125 0.453125 C 3.492188 0.453125 1.140625 -1.421875 1.140625 -5.171875 C 1.140625 -7.117188 1.664062 -8.601562 2.71875 -9.625 C 3.769531 -10.65625 5.28125 -11.359375 7.25 -11.734375 C 9.226562 -12.117188 11.816406 -12.3125 15.015625 -12.3125 L 15.015625 -13.296875 C 15.015625 -14.085938 14.738281 -14.679688 14.1875 -15.078125 C 13.644531 -15.484375 12.941406 -15.6875 12.078125 -15.6875 C 11.296875 -15.6875 10.617188 -15.546875 10.046875 -15.265625 C 9.484375 -14.992188 9.203125 -14.554688 9.203125 -13.953125 L 9.203125 -13.796875 L 1.75 -13.796875 C 1.71875 -13.921875 1.703125 -14.097656 1.703125 -14.328125 C 1.703125 -16.222656 2.609375 -17.726562 4.421875 -18.84375 C 6.234375 -19.957031 8.828125 -20.515625 12.203125 -20.515625 Z M 15.015625 -8.734375 C 12.859375 -8.734375 11.265625 -8.5 10.234375 -8.03125 C 9.210938 -7.5625 8.703125 -6.9375 8.703125 -6.15625 C 8.703125 -4.882812 9.5625 -4.25 11.28125 -4.25 C 12.269531 -4.25 13.140625 -4.515625 13.890625 -5.046875 C 14.640625 -5.585938 15.015625 -6.25 15.015625 -7.03125 Z M 15.015625 -8.734375 "/></g></g></g></svg>