<svg xmlns="http://www.w3.org/2000/svg" xmlns:xlink="http://www.w3.org/1999/xlink" width="350" zoomAndPan="magnify" viewBox="0 0 262.5 112.499997" height="150" preserveAspectRatio="xMidYMid meet" version="1.0"><defs><g/><clipPath id="de68d8edef"><path d="M 0.332031 0 L 261.671875 0 L 261.671875 112.003906 L 0.332031 112.003906 Z M 0.332031 0 " clip-rule="nonzero"/></clipPath><clipPath id="a2cf3d9818"><path d="M 100.746094 11.222656 L 160 11.222656 L 160 70 L 100.746094 70 Z M 100.746094 11.222656 " clip-rule="nonzero"/></clipPath></defs><g clip-path="url(#de68d8edef)"><path fill="#ffffff" d="M 0.332031 0 L 262.167969 0 L 262.167969 112.214844 L 0.332031 112.214844 Z M 0.332031 0 " fill-opacity="1" fill-rule="nonzero"/><path fill="#ffffff" d="M 0.332031 0 L 262.167969 0 L 262.167969 112.214844 L 0.332031 112.214844 Z M 0.332031 0 " fill-opacity="1" fill-rule="nonzero"/></g><g clip-path="url(#a2cf3d9818)"><path fill="#ed802c" d="M 100.746094 40.46875 C 100.746094 24.316406 113.84375 11.222656 129.992188 11.222656 C 146.144531 11.222656 159.238281 24.316406 159.238281 40.46875 C 159.238281 56.617188 146.144531 69.714844 129.992188 69.714844 C 113.84375 69.714844 100.746094 56.617188 100.746094 40.46875 Z M 100.746094 40.46875 " fill-opacity="1" fill-rule="nonzero"/></g><path fill="#e5772e" d="M 150.667969 19.792969 C 162.089844 31.214844 162.089844 49.734375 150.667969 61.144531 C 139.246094 72.566406 120.726562 72.566406 109.316406 61.144531 Z M 150.667969 19.792969 " fill-opacity="1" fill-rule="nonzero"/><path fill="#d56727" d="M 155.972656 53.894531 L 136.441406 34.359375 L 133.175781 37.613281 L 124.394531 28.832031 L 120.386719 27.3125 L 116.203125 31.507812 L 127.71875 43.027344 L 126.761719 43.980469 L 120.089844 37.308594 L 116.203125 41.199219 L 142.085938 67.085938 C 148.0625 64.375 152.96875 59.707031 155.972656 53.894531 " fill-opacity="1" fill-rule="nonzero"/><path fill="#d56727" d="M 117.285156 53.46875 L 133.339844 69.523438 C 136.324219 69.183594 139.175781 68.394531 141.816406 67.226562 L 122.671875 48.082031 Z M 117.285156 53.46875 " fill-opacity="1" fill-rule="nonzero"/><path fill="#ffffff" d="M 122.695312 48.164062 C 123.390625 48.859375 123.816406 49.792969 123.816406 50.839844 C 123.816406 51.890625 123.390625 52.820312 122.695312 53.515625 C 122 54.199219 121.058594 54.625 120.007812 54.625 C 118.960938 54.625 118.015625 54.199219 117.320312 53.515625 C 116.625 52.832031 116.203125 51.890625 116.203125 50.839844 C 116.203125 49.792969 116.625 48.847656 117.320312 48.164062 C 118.015625 47.480469 118.960938 47.058594 120.007812 47.058594 C 121.058594 47.046875 122 47.46875 122.695312 48.164062 M 116.214844 35.777344 L 116.214844 41.246094 C 119.785156 41.246094 123.15625 42.648438 125.679688 45.183594 C 128.203125 47.707031 129.605469 51.078125 129.605469 54.660156 L 129.605469 54.671875 L 135.085938 54.671875 C 135.085938 49.460938 132.964844 44.746094 129.546875 41.328125 C 126.125 37.898438 121.410156 35.777344 116.214844 35.777344 M 116.226562 26.039062 L 116.226562 31.507812 C 128.980469 31.519531 139.339844 41.90625 139.351562 54.660156 L 144.835938 54.660156 C 144.835938 46.773438 141.628906 39.617188 136.441406 34.445312 C 131.253906 29.257812 124.109375 26.039062 116.226562 26.039062 " fill-opacity="1" fill-rule="nonzero"/><g fill="#d56727" fill-opacity="0.4"><g transform="translate(74.599816, 98.124578)"><g><path d="M 1.449219 -0.554688 L 1.6875 -0.179688 L 2.066406 0.0390625 L 2.464844 0.0195312 L 3.257812 0.0585938 L 3.675781 0.0195312 L 4.511719 0.0390625 L 4.929688 -0.199219 L 5.085938 -0.578125 L 5.128906 -0.953125 L 5.085938 -1.390625 L 5.085938 -4.910156 L 5.265625 -5.324219 L 5.683594 -5.585938 L 8.027344 -5.605469 L 8.445312 -5.542969 L 8.804688 -5.542969 L 9.179688 -5.324219 L 9.378906 -4.949219 L 9.398438 -0.554688 L 9.617188 -0.238281 L 10.195312 0.0195312 L 11.226562 0.0195312 L 11.625 -0.0195312 L 12.441406 0.0390625 L 12.816406 -0.21875 L 13.054688 -0.554688 L 13.015625 -2.363281 L 13.074219 -3 L 13.015625 -3.320312 L 13.035156 -13.292969 L 12.855469 -13.710938 L 12.460938 -13.871094 L 10.175781 -13.890625 L 9.597656 -13.75 L 9.398438 -13.273438 L 9.378906 -12.519531 L 9.417969 -12.183594 L 9.378906 -11.367188 L 9.4375 -10.988281 L 9.417969 -9.4375 L 9.199219 -9.042969 L 8.804688 -8.824219 L 8.425781 -8.882812 L 7.652344 -8.804688 L 7.234375 -8.84375 L 6.875 -8.804688 L 5.703125 -8.824219 L 5.324219 -9.003906 L 5.128906 -9.378906 L 5.105469 -9.816406 L 5.105469 -10.234375 L 5.085938 -10.59375 L 5.105469 -12.140625 L 5.148438 -12.578125 L 5.105469 -13.3125 L 4.929688 -13.691406 L 4.511719 -13.910156 L 4.074219 -13.871094 L 2.105469 -13.910156 L 1.667969 -13.710938 L 1.46875 -13.3125 L 1.429688 -12.878906 L 1.46875 -11.328125 L 1.429688 -10.929688 L 1.511719 -10.113281 L 1.46875 -9.359375 L 1.492188 -8.882812 L 1.449219 -8.484375 L 1.449219 -2.542969 L 1.511719 -2.1875 Z M 1.449219 -0.554688 "/></g></g></g><g fill="#d56727" fill-opacity="0.4"><g transform="translate(89.145276, 98.124578)"><g><path d="M 0.257812 -0.535156 L 0.359375 -0.121094 L 0.753906 -0.0195312 L 2.503906 -0.0195312 L 3.019531 0.0390625 L 3.476562 -0.160156 L 3.835938 -0.515625 L 4.171875 -1.191406 L 4.511719 -1.570312 L 4.988281 -1.769531 L 5.386719 -1.730469 L 6.5 -1.75 L 6.914062 -1.6875 L 7.371094 -1.75 L 7.730469 -1.75 L 8.148438 -1.710938 L 9.082031 -1.75 L 9.738281 -1.53125 L 10.15625 -1.210938 L 10.253906 -0.855469 L 10.472656 -0.496094 L 10.808594 -0.179688 L 11.328125 0.0195312 L 11.683594 -0.0195312 L 12.378906 0.0390625 L 13.613281 0 L 13.96875 -0.121094 L 14.050781 -0.535156 L 13.929688 -1.035156 L 13.792969 -1.390625 L 13.53125 -1.730469 L 13.414062 -2.125 L 13.214844 -2.425781 L 13.097656 -2.800781 L 12.757812 -3.515625 L 12.617188 -3.894531 L 12.421875 -4.234375 L 12.140625 -4.96875 L 11.921875 -5.285156 L 11.765625 -5.683594 L 11.585938 -6.019531 L 11.445312 -6.417969 L 11.269531 -6.71875 L 11.148438 -7.113281 L 10.929688 -7.472656 L 10.769531 -7.808594 L 10.570312 -8.148438 L 10.472656 -8.523438 L 10.074219 -9.222656 L 9.957031 -9.597656 L 9.597656 -10.351562 L 9.5 -10.671875 L 9.199219 -11.367188 L 8.804688 -12.101562 L 8.484375 -12.855469 L 8.304688 -13.15625 L 8.1875 -13.53125 L 7.828125 -13.910156 L 7.152344 -14.089844 L 6.519531 -13.890625 L 6.140625 -13.53125 L 6.019531 -13.175781 L 5.167969 -11.386719 L 4.949219 -11.027344 L 3.835938 -8.523438 L 3.734375 -8.1875 L 3.515625 -7.828125 L 3.199219 -7.113281 L 2.902344 -6.597656 L 2.761719 -6.21875 L 2.484375 -5.703125 L 2.363281 -5.285156 L 2.1875 -4.96875 L 2.046875 -4.570312 L 1.492188 -3.539062 L 0.914062 -2.085938 L 0.675781 -1.769531 L 0.496094 -1.371094 Z M 6.398438 -4.910156 L 6.019531 -5.066406 L 5.960938 -5.464844 L 6.757812 -7.273438 L 6.933594 -7.589844 L 7.195312 -7.789062 L 7.433594 -7.632812 L 7.691406 -6.855469 L 7.910156 -6.519531 L 7.988281 -6.199219 L 8.1875 -5.800781 L 8.328125 -5.445312 L 8.285156 -5.085938 L 7.949219 -4.929688 Z M 6.398438 -4.910156 "/></g></g></g><g fill="#d56727" fill-opacity="0.4"><g transform="translate(103.571509, 98.124578)"><g><path d="M 1.46875 -0.617188 L 1.628906 -0.199219 L 2.046875 -0.0390625 L 2.445312 0 L 3.617188 -0.0195312 L 4.054688 0.0195312 L 4.472656 0.0195312 L 4.867188 -0.199219 L 5.046875 -0.617188 L 5.066406 -1.410156 L 5.027344 -1.789062 L 5.085938 -2.144531 L 5.046875 -2.582031 L 5.046875 -3 L 5.1875 -3.339844 L 5.722656 -3.539062 L 6.160156 -3.597656 L 6.757812 -3.539062 L 7.789062 -3.558594 L 8.605469 -3.714844 L 9.757812 -4.054688 L 10.433594 -4.472656 L 10.75 -4.710938 L 11.347656 -5.285156 L 11.984375 -6.238281 L 12.160156 -6.597656 L 12.300781 -6.957031 L 12.480469 -7.769531 L 12.519531 -8.128906 L 12.539062 -9.300781 L 12.183594 -10.851562 L 11.785156 -11.566406 L 11.527344 -11.902344 L 11.269531 -12.183594 L 11.050781 -12.480469 L 10.710938 -12.777344 L 10.113281 -13.175781 L 9.398438 -13.554688 L 8.980469 -13.632812 L 8.585938 -13.792969 L 8.226562 -13.871094 L 2.285156 -13.890625 L 1.75 -13.710938 L 1.550781 -13.335938 L 1.511719 -12.917969 L 1.511719 -12.101562 L 1.449219 -11.746094 L 1.449219 -11.367188 L 1.511719 -10.949219 L 1.511719 -8.921875 L 1.46875 -8.523438 L 1.511719 -8.167969 L 1.46875 -7.730469 L 1.53125 -6.914062 L 1.449219 -6.378906 L 1.511719 -5.78125 L 1.46875 -5.40625 L 1.46875 -4.570312 L 1.53125 -4.191406 L 1.46875 -3.398438 L 1.53125 -2.144531 L 1.429688 -1.75 L 1.511719 -1.371094 L 1.449219 -0.992188 Z M 5.683594 -6.777344 L 5.304688 -6.957031 L 5.066406 -7.351562 L 5.027344 -10.113281 L 5.265625 -10.550781 L 5.664062 -10.710938 L 6.160156 -10.75 L 7.75 -10.671875 L 8.089844 -10.492188 L 8.386719 -10.273438 L 8.703125 -9.976562 L 8.902344 -9.636719 L 9.082031 -8.703125 L 8.863281 -7.789062 L 8.40625 -7.234375 L 8.089844 -7.015625 L 7.769531 -6.835938 L 6.140625 -6.738281 Z M 5.683594 -6.777344 "/></g></g></g><g fill="#d56727" fill-opacity="0.4"><g transform="translate(116.646527, 98.124578)"><g><path d="M 1.46875 -0.617188 L 1.628906 -0.199219 L 2.046875 -0.0390625 L 2.445312 0 L 3.617188 -0.0195312 L 4.054688 0.0195312 L 4.472656 0.0195312 L 4.867188 -0.199219 L 5.046875 -0.617188 L 5.066406 -1.410156 L 5.027344 -1.789062 L 5.085938 -2.144531 L 5.046875 -2.582031 L 5.046875 -3 L 5.1875 -3.339844 L 5.722656 -3.539062 L 6.160156 -3.597656 L 6.757812 -3.539062 L 7.789062 -3.558594 L 8.605469 -3.714844 L 9.757812 -4.054688 L 10.433594 -4.472656 L 10.75 -4.710938 L 11.347656 -5.285156 L 11.984375 -6.238281 L 12.160156 -6.597656 L 12.300781 -6.957031 L 12.480469 -7.769531 L 12.519531 -8.128906 L 12.539062 -9.300781 L 12.183594 -10.851562 L 11.785156 -11.566406 L 11.527344 -11.902344 L 11.269531 -12.183594 L 11.050781 -12.480469 L 10.710938 -12.777344 L 10.113281 -13.175781 L 9.398438 -13.554688 L 8.980469 -13.632812 L 8.585938 -13.792969 L 8.226562 -13.871094 L 2.285156 -13.890625 L 1.75 -13.710938 L 1.550781 -13.335938 L 1.511719 -12.917969 L 1.511719 -12.101562 L 1.449219 -11.746094 L 1.449219 -11.367188 L 1.511719 -10.949219 L 1.511719 -8.921875 L 1.46875 -8.523438 L 1.511719 -8.167969 L 1.46875 -7.730469 L 1.53125 -6.914062 L 1.449219 -6.378906 L 1.511719 -5.78125 L 1.46875 -5.40625 L 1.46875 -4.570312 L 1.53125 -4.191406 L 1.46875 -3.398438 L 1.53125 -2.144531 L 1.429688 -1.75 L 1.511719 -1.371094 L 1.449219 -0.992188 Z M 5.683594 -6.777344 L 5.304688 -6.957031 L 5.066406 -7.351562 L 5.027344 -10.113281 L 5.265625 -10.550781 L 5.664062 -10.710938 L 6.160156 -10.75 L 7.75 -10.671875 L 8.089844 -10.492188 L 8.386719 -10.273438 L 8.703125 -9.976562 L 8.902344 -9.636719 L 9.082031 -8.703125 L 8.863281 -7.789062 L 8.40625 -7.234375 L 8.089844 -7.015625 L 7.769531 -6.835938 L 6.140625 -6.738281 Z M 5.683594 -6.777344 "/></g></g></g><g fill="#d56727" fill-opacity="0.4"><g transform="translate(129.721544, 98.124578)"><g><path d="M 4.570312 -0.554688 L 4.789062 -0.21875 L 5.167969 -0.0195312 L 5.882812 0.0195312 L 6.28125 -0.0195312 L 6.695312 0 L 7.253906 -0.0195312 L 7.847656 -0.21875 L 8.046875 -0.617188 L 8.046875 -0.953125 L 8.007812 -1.371094 L 8.027344 -1.75 L 8.007812 -2.105469 L 8.109375 -3.320312 L 8.046875 -3.734375 L 8.109375 -4.886719 L 8.027344 -5.246094 L 8.128906 -5.824219 L 8.824219 -7.035156 L 8.980469 -7.414062 L 9.199219 -7.75 L 9.699219 -8.40625 L 11.984375 -12.183594 L 12.222656 -12.480469 L 12.359375 -12.835938 L 12.640625 -13.3125 L 12.578125 -13.792969 L 12.203125 -13.949219 L 11.804688 -13.890625 L 11.027344 -13.949219 L 10.613281 -13.890625 L 9.855469 -13.890625 L 9.480469 -13.929688 L 8.980469 -13.730469 L 8.566406 -13.355469 L 8.226562 -12.679688 L 7.96875 -12.300781 L 7.847656 -11.921875 L 7.390625 -11.269531 L 7.09375 -10.550781 L 6.4375 -9.480469 L 6.160156 -9.4375 L 5.703125 -10.15625 L 5.523438 -10.511719 L 5.40625 -10.910156 L 4.410156 -12.660156 L 4.191406 -12.996094 L 4.035156 -13.394531 L 3.597656 -13.710938 L 3.101562 -13.929688 L 0.476562 -13.890625 L 0.0390625 -13.773438 L 0 -13.335938 L 0.199219 -12.855469 L 2.34375 -9.460938 L 2.503906 -9.121094 L 4.273438 -6.339844 L 4.429688 -5.824219 L 4.53125 -5.246094 L 4.511719 -3.675781 L 4.550781 -3.277344 L 4.570312 -2.902344 L 4.53125 -2.542969 L 4.511719 -1.789062 L 4.609375 -0.972656 Z M 4.570312 -0.554688 "/></g></g></g><g fill="#d56727" fill-opacity="0.4"><g transform="translate(142.359403, 98.124578)"><g><path d="M 0.714844 -6.082031 L 0.894531 -5.703125 L 1.253906 -5.464844 L 1.667969 -5.484375 L 2.085938 -5.445312 L 2.464844 -5.523438 L 3.257812 -5.464844 L 3.597656 -5.523438 L 4.949219 -5.523438 L 5.34375 -5.464844 L 6.519531 -5.484375 L 7.113281 -5.683594 L 7.351562 -6.101562 L 7.3125 -7.710938 L 7.175781 -8.148438 L 6.777344 -8.367188 L 4.769531 -8.347656 L 4.390625 -8.425781 L 2.085938 -8.386719 L 1.6875 -8.425781 L 1.3125 -8.386719 L 0.894531 -8.148438 L 0.714844 -7.769531 Z M 0.714844 -6.082031 "/></g></g></g><g fill="#d56727" fill-opacity="0.4"><g transform="translate(150.506448, 98.124578)"><g><path d="M 1.492188 -0.816406 L 1.6875 -0.199219 L 2.265625 0.0585938 L 2.664062 0 L 3.296875 0.0585938 L 3.617188 0.0195312 L 4.214844 0.0195312 L 4.847656 -0.179688 L 5.027344 -0.753906 L 5.027344 -1.429688 L 5.066406 -1.789062 L 5.007812 -2.207031 L 5.046875 -3.476562 L 5.226562 -3.875 L 5.605469 -4.09375 L 6.757812 -3.933594 L 7.152344 -3.597656 L 7.390625 -3.199219 L 7.550781 -2.839844 L 7.96875 -2.246094 L 8.347656 -1.53125 L 8.566406 -1.230469 L 8.722656 -0.835938 L 8.941406 -0.496094 L 9.378906 -0.140625 L 10.054688 0.0390625 L 11.625 0.0195312 L 12.003906 0.0585938 L 12.660156 0.0390625 L 13.035156 -0.140625 L 13.15625 -0.578125 L 12.9375 -1.011719 L 12.699219 -1.292969 L 12.539062 -1.667969 L 11.863281 -2.683594 L 11.683594 -3.039062 L 11.050781 -4.074219 L 10.808594 -4.371094 L 10.789062 -4.847656 L 10.96875 -5.285156 L 11.246094 -5.585938 L 11.527344 -5.824219 L 12.300781 -7.214844 L 12.558594 -8.367188 L 12.519531 -9.617188 L 12.460938 -10.015625 L 12.101562 -11.148438 L 11.941406 -11.484375 L 11.726562 -11.804688 L 10.59375 -12.996094 L 9.894531 -13.375 L 9.140625 -13.632812 L 8.007812 -13.890625 L 7.371094 -13.910156 L 6.796875 -13.871094 L 5.605469 -13.871094 L 5.207031 -13.949219 L 4.808594 -13.949219 L 4.453125 -13.851562 L 4.054688 -13.851562 L 3.65625 -13.929688 L 3.21875 -13.949219 L 2.046875 -13.851562 L 1.6875 -13.652344 L 1.449219 -13.097656 L 1.46875 -8.546875 L 1.511719 -8.148438 L 1.449219 -7.351562 L 1.46875 -6.914062 L 1.46875 -6.519531 L 1.511719 -6.140625 L 1.46875 -5.761719 L 1.449219 -4.152344 L 1.492188 -3.757812 Z M 5.605469 -7.273438 L 5.207031 -7.492188 L 5.046875 -7.808594 L 5.046875 -9.003906 L 5.007812 -9.339844 L 5.046875 -10.175781 L 5.226562 -10.550781 L 5.644531 -10.710938 L 6.042969 -10.691406 L 6.835938 -10.769531 L 7.390625 -10.652344 L 7.910156 -10.613281 L 8.285156 -10.511719 L 8.785156 -9.894531 L 8.902344 -9.578125 L 8.980469 -9.0625 L 8.921875 -8.464844 L 8.742188 -8.066406 L 8.523438 -7.769531 L 8.304688 -7.589844 L 7.949219 -7.433594 L 7.371094 -7.292969 L 6.996094 -7.273438 L 6.042969 -7.3125 Z M 5.605469 -7.273438 "/></g></g></g><g fill="#d56727" fill-opacity="0.4"><g transform="translate(164.296814, 98.124578)"><g><path d="M 5.34375 0.179688 L 6.914062 0.21875 L 7.3125 0.179688 L 7.710938 0.078125 L 8.109375 0.0195312 L 8.503906 -0.140625 L 8.863281 -0.179688 L 9.242188 -0.359375 L 10.59375 -1.171875 L 11.167969 -1.769531 L 11.367188 -2.046875 L 11.585938 -2.484375 L 11.703125 -2.839844 L 11.824219 -3.179688 L 11.941406 -4.171875 L 11.902344 -4.808594 L 11.605469 -5.960938 L 11.386719 -6.28125 L 10.871094 -6.875 L 10.511719 -7.195312 L 10.195312 -7.351562 L 9.835938 -7.570312 L 8.285156 -8.046875 L 7.890625 -8.109375 L 7.492188 -8.128906 L 7.074219 -8.207031 L 6.5 -8.207031 L 5.445312 -8.425781 L 4.710938 -8.785156 L 4.410156 -9.0625 L 4.332031 -9.65625 L 4.429688 -10.195312 L 4.671875 -10.453125 L 4.96875 -10.671875 L 5.285156 -10.851562 L 5.644531 -10.929688 L 6.28125 -10.949219 L 6.914062 -10.871094 L 7.273438 -10.769531 L 7.632812 -10.53125 L 7.96875 -10.253906 L 8.265625 -9.855469 L 8.703125 -9.597656 L 9.636719 -9.679688 L 10.175781 -9.636719 L 10.570312 -9.636719 L 10.929688 -9.597656 L 11.308594 -9.875 L 11.464844 -10.214844 L 11.386719 -10.59375 L 11.347656 -10.96875 L 10.789062 -12.003906 L 10.351562 -12.597656 L 9.042969 -13.511719 L 7.929688 -13.890625 L 7.152344 -14.050781 L 5.625 -14.089844 L 5.1875 -13.96875 L 4.789062 -13.949219 L 4.429688 -13.890625 L 3.675781 -13.652344 L 3 -13.253906 L 2.046875 -12.597656 L 1.351562 -11.664062 L 0.992188 -10.570312 L 0.933594 -9.597656 L 0.953125 -8.980469 L 1.09375 -8.1875 L 1.410156 -7.492188 L 2.144531 -6.578125 L 3.496094 -5.84375 L 4.214844 -5.605469 L 7.332031 -5.246094 L 8.046875 -4.910156 L 8.304688 -4.671875 L 8.425781 -4.171875 L 8.265625 -3.675781 L 8.007812 -3.378906 L 7.332031 -3.082031 L 6.71875 -3.039062 L 6.359375 -2.980469 L 5.34375 -3.082031 L 5.007812 -3.257812 L 4.671875 -3.476562 L 4.015625 -4.191406 L 3.617188 -4.351562 L 3.257812 -4.3125 L 2.882812 -4.371094 L 1.351562 -4.292969 L 0.992188 -4.132812 L 0.835938 -3.714844 L 0.894531 -3.320312 L 0.972656 -2.921875 L 1.09375 -2.5625 L 1.46875 -1.828125 L 1.75 -1.570312 L 2.007812 -1.273438 L 2.703125 -0.835938 L 2.980469 -0.535156 L 3.359375 -0.359375 L 3.757812 -0.238281 L 4.53125 0.0390625 Z M 5.34375 0.179688 "/></g></g></g><g fill="#d56727" fill-opacity="0.4"><g transform="translate(176.974417, 98.124578)"><g><path d="M 5.34375 0.179688 L 6.914062 0.21875 L 7.3125 0.179688 L 7.710938 0.078125 L 8.109375 0.0195312 L 8.503906 -0.140625 L 8.863281 -0.179688 L 9.242188 -0.359375 L 10.59375 -1.171875 L 11.167969 -1.769531 L 11.367188 -2.046875 L 11.585938 -2.484375 L 11.703125 -2.839844 L 11.824219 -3.179688 L 11.941406 -4.171875 L 11.902344 -4.808594 L 11.605469 -5.960938 L 11.386719 -6.28125 L 10.871094 -6.875 L 10.511719 -7.195312 L 10.195312 -7.351562 L 9.835938 -7.570312 L 8.285156 -8.046875 L 7.890625 -8.109375 L 7.492188 -8.128906 L 7.074219 -8.207031 L 6.5 -8.207031 L 5.445312 -8.425781 L 4.710938 -8.785156 L 4.410156 -9.0625 L 4.332031 -9.65625 L 4.429688 -10.195312 L 4.671875 -10.453125 L 4.96875 -10.671875 L 5.285156 -10.851562 L 5.644531 -10.929688 L 6.28125 -10.949219 L 6.914062 -10.871094 L 7.273438 -10.769531 L 7.632812 -10.53125 L 7.96875 -10.253906 L 8.265625 -9.855469 L 8.703125 -9.597656 L 9.636719 -9.679688 L 10.175781 -9.636719 L 10.570312 -9.636719 L 10.929688 -9.597656 L 11.308594 -9.875 L 11.464844 -10.214844 L 11.386719 -10.59375 L 11.347656 -10.96875 L 10.789062 -12.003906 L 10.351562 -12.597656 L 9.042969 -13.511719 L 7.929688 -13.890625 L 7.152344 -14.050781 L 5.625 -14.089844 L 5.1875 -13.96875 L 4.789062 -13.949219 L 4.429688 -13.890625 L 3.675781 -13.652344 L 3 -13.253906 L 2.046875 -12.597656 L 1.351562 -11.664062 L 0.992188 -10.570312 L 0.933594 -9.597656 L 0.953125 -8.980469 L 1.09375 -8.1875 L 1.410156 -7.492188 L 2.144531 -6.578125 L 3.496094 -5.84375 L 4.214844 -5.605469 L 7.332031 -5.246094 L 8.046875 -4.910156 L 8.304688 -4.671875 L 8.425781 -4.171875 L 8.265625 -3.675781 L 8.007812 -3.378906 L 7.332031 -3.082031 L 6.71875 -3.039062 L 6.359375 -2.980469 L 5.34375 -3.082031 L 5.007812 -3.257812 L 4.671875 -3.476562 L 4.015625 -4.191406 L 3.617188 -4.351562 L 3.257812 -4.3125 L 2.882812 -4.371094 L 1.351562 -4.292969 L 0.992188 -4.132812 L 0.835938 -3.714844 L 0.894531 -3.320312 L 0.972656 -2.921875 L 1.09375 -2.5625 L 1.46875 -1.828125 L 1.75 -1.570312 L 2.007812 -1.273438 L 2.703125 -0.835938 L 2.980469 -0.535156 L 3.359375 -0.359375 L 3.757812 -0.238281 L 4.53125 0.0390625 Z M 5.34375 0.179688 "/></g></g></g><g fill="#d56727" fill-opacity="1"><g transform="translate(73.721459, 97.24622)"><g><path d="M 1.449219 -0.554688 L 1.6875 -0.179688 L 2.066406 0.0390625 L 2.464844 0.0195312 L 3.257812 0.0585938 L 3.675781 0.0195312 L 4.511719 0.0390625 L 4.929688 -0.199219 L 5.085938 -0.578125 L 5.128906 -0.953125 L 5.085938 -1.390625 L 5.085938 -4.910156 L 5.265625 -5.324219 L 5.683594 -5.585938 L 8.027344 -5.605469 L 8.445312 -5.542969 L 8.804688 -5.542969 L 9.179688 -5.324219 L 9.378906 -4.949219 L 9.398438 -0.554688 L 9.617188 -0.238281 L 10.195312 0.0195312 L 11.226562 0.0195312 L 11.625 -0.0195312 L 12.441406 0.0390625 L 12.816406 -0.21875 L 13.054688 -0.554688 L 13.015625 -2.363281 L 13.074219 -3 L 13.015625 -3.320312 L 13.035156 -13.292969 L 12.855469 -13.710938 L 12.460938 -13.871094 L 10.175781 -13.890625 L 9.597656 -13.75 L 9.398438 -13.273438 L 9.378906 -12.519531 L 9.417969 -12.183594 L 9.378906 -11.367188 L 9.4375 -10.988281 L 9.417969 -9.4375 L 9.199219 -9.042969 L 8.804688 -8.824219 L 8.425781 -8.882812 L 7.652344 -8.804688 L 7.234375 -8.84375 L 6.875 -8.804688 L 5.703125 -8.824219 L 5.324219 -9.003906 L 5.128906 -9.378906 L 5.105469 -9.816406 L 5.105469 -10.234375 L 5.085938 -10.59375 L 5.105469 -12.140625 L 5.148438 -12.578125 L 5.105469 -13.3125 L 4.929688 -13.691406 L 4.511719 -13.910156 L 4.074219 -13.871094 L 2.105469 -13.910156 L 1.667969 -13.710938 L 1.46875 -13.3125 L 1.429688 -12.878906 L 1.46875 -11.328125 L 1.429688 -10.929688 L 1.511719 -10.113281 L 1.46875 -9.359375 L 1.492188 -8.882812 L 1.449219 -8.484375 L 1.449219 -2.542969 L 1.511719 -2.1875 Z M 1.449219 -0.554688 "/></g></g></g><g fill="#d56727" fill-opacity="1"><g transform="translate(88.266919, 97.24622)"><g><path d="M 0.257812 -0.535156 L 0.359375 -0.121094 L 0.753906 -0.0195312 L 2.503906 -0.0195312 L 3.019531 0.0390625 L 3.476562 -0.160156 L 3.835938 -0.515625 L 4.171875 -1.191406 L 4.511719 -1.570312 L 4.988281 -1.769531 L 5.386719 -1.730469 L 6.5 -1.75 L 6.914062 -1.6875 L 7.371094 -1.75 L 7.730469 -1.75 L 8.148438 -1.710938 L 9.082031 -1.75 L 9.738281 -1.53125 L 10.15625 -1.210938 L 10.253906 -0.855469 L 10.472656 -0.496094 L 10.808594 -0.179688 L 11.328125 0.0195312 L 11.683594 -0.0195312 L 12.378906 0.0390625 L 13.613281 0 L 13.96875 -0.121094 L 14.050781 -0.535156 L 13.929688 -1.035156 L 13.792969 -1.390625 L 13.53125 -1.730469 L 13.414062 -2.125 L 13.214844 -2.425781 L 13.097656 -2.800781 L 12.757812 -3.515625 L 12.617188 -3.894531 L 12.421875 -4.234375 L 12.140625 -4.96875 L 11.921875 -5.285156 L 11.765625 -5.683594 L 11.585938 -6.019531 L 11.445312 -6.417969 L 11.269531 -6.71875 L 11.148438 -7.113281 L 10.929688 -7.472656 L 10.769531 -7.808594 L 10.570312 -8.148438 L 10.472656 -8.523438 L 10.074219 -9.222656 L 9.957031 -9.597656 L 9.597656 -10.351562 L 9.5 -10.671875 L 9.199219 -11.367188 L 8.804688 -12.101562 L 8.484375 -12.855469 L 8.304688 -13.15625 L 8.1875 -13.53125 L 7.828125 -13.910156 L 7.152344 -14.089844 L 6.519531 -13.890625 L 6.140625 -13.53125 L 6.019531 -13.175781 L 5.167969 -11.386719 L 4.949219 -11.027344 L 3.835938 -8.523438 L 3.734375 -8.1875 L 3.515625 -7.828125 L 3.199219 -7.113281 L 2.902344 -6.597656 L 2.761719 -6.21875 L 2.484375 -5.703125 L 2.363281 -5.285156 L 2.1875 -4.96875 L 2.046875 -4.570312 L 1.492188 -3.539062 L 0.914062 -2.085938 L 0.675781 -1.769531 L 0.496094 -1.371094 Z M 6.398438 -4.910156 L 6.019531 -5.066406 L 5.960938 -5.464844 L 6.757812 -7.273438 L 6.933594 -7.589844 L 7.195312 -7.789062 L 7.433594 -7.632812 L 7.691406 -6.855469 L 7.910156 -6.519531 L 7.988281 -6.199219 L 8.1875 -5.800781 L 8.328125 -5.445312 L 8.285156 -5.085938 L 7.949219 -4.929688 Z M 6.398438 -4.910156 "/></g></g></g><g fill="#d56727" fill-opacity="1"><g transform="translate(102.693152, 97.24622)"><g><path d="M 1.46875 -0.617188 L 1.628906 -0.199219 L 2.046875 -0.0390625 L 2.445312 0 L 3.617188 -0.0195312 L 4.054688 0.0195312 L 4.472656 0.0195312 L 4.867188 -0.199219 L 5.046875 -0.617188 L 5.066406 -1.410156 L 5.027344 -1.789062 L 5.085938 -2.144531 L 5.046875 -2.582031 L 5.046875 -3 L 5.1875 -3.339844 L 5.722656 -3.539062 L 6.160156 -3.597656 L 6.757812 -3.539062 L 7.789062 -3.558594 L 8.605469 -3.714844 L 9.757812 -4.054688 L 10.433594 -4.472656 L 10.75 -4.710938 L 11.347656 -5.285156 L 11.984375 -6.238281 L 12.160156 -6.597656 L 12.300781 -6.957031 L 12.480469 -7.769531 L 12.519531 -8.128906 L 12.539062 -9.300781 L 12.183594 -10.851562 L 11.785156 -11.566406 L 11.527344 -11.902344 L 11.269531 -12.183594 L 11.050781 -12.480469 L 10.710938 -12.777344 L 10.113281 -13.175781 L 9.398438 -13.554688 L 8.980469 -13.632812 L 8.585938 -13.792969 L 8.226562 -13.871094 L 2.285156 -13.890625 L 1.75 -13.710938 L 1.550781 -13.335938 L 1.511719 -12.917969 L 1.511719 -12.101562 L 1.449219 -11.746094 L 1.449219 -11.367188 L 1.511719 -10.949219 L 1.511719 -8.921875 L 1.46875 -8.523438 L 1.511719 -8.167969 L 1.46875 -7.730469 L 1.53125 -6.914062 L 1.449219 -6.378906 L 1.511719 -5.78125 L 1.46875 -5.40625 L 1.46875 -4.570312 L 1.53125 -4.191406 L 1.46875 -3.398438 L 1.53125 -2.144531 L 1.429688 -1.75 L 1.511719 -1.371094 L 1.449219 -0.992188 Z M 5.683594 -6.777344 L 5.304688 -6.957031 L 5.066406 -7.351562 L 5.027344 -10.113281 L 5.265625 -10.550781 L 5.664062 -10.710938 L 6.160156 -10.75 L 7.75 -10.671875 L 8.089844 -10.492188 L 8.386719 -10.273438 L 8.703125 -9.976562 L 8.902344 -9.636719 L 9.082031 -8.703125 L 8.863281 -7.789062 L 8.40625 -7.234375 L 8.089844 -7.015625 L 7.769531 -6.835938 L 6.140625 -6.738281 Z M 5.683594 -6.777344 "/></g></g></g><g fill="#d56727" fill-opacity="1"><g transform="translate(115.76817, 97.24622)"><g><path d="M 1.46875 -0.617188 L 1.628906 -0.199219 L 2.046875 -0.0390625 L 2.445312 0 L 3.617188 -0.0195312 L 4.054688 0.0195312 L 4.472656 0.0195312 L 4.867188 -0.199219 L 5.046875 -0.617188 L 5.066406 -1.410156 L 5.027344 -1.789062 L 5.085938 -2.144531 L 5.046875 -2.582031 L 5.046875 -3 L 5.1875 -3.339844 L 5.722656 -3.539062 L 6.160156 -3.597656 L 6.757812 -3.539062 L 7.789062 -3.558594 L 8.605469 -3.714844 L 9.757812 -4.054688 L 10.433594 -4.472656 L 10.75 -4.710938 L 11.347656 -5.285156 L 11.984375 -6.238281 L 12.160156 -6.597656 L 12.300781 -6.957031 L 12.480469 -7.769531 L 12.519531 -8.128906 L 12.539062 -9.300781 L 12.183594 -10.851562 L 11.785156 -11.566406 L 11.527344 -11.902344 L 11.269531 -12.183594 L 11.050781 -12.480469 L 10.710938 -12.777344 L 10.113281 -13.175781 L 9.398438 -13.554688 L 8.980469 -13.632812 L 8.585938 -13.792969 L 8.226562 -13.871094 L 2.285156 -13.890625 L 1.75 -13.710938 L 1.550781 -13.335938 L 1.511719 -12.917969 L 1.511719 -12.101562 L 1.449219 -11.746094 L 1.449219 -11.367188 L 1.511719 -10.949219 L 1.511719 -8.921875 L 1.46875 -8.523438 L 1.511719 -8.167969 L 1.46875 -7.730469 L 1.53125 -6.914062 L 1.449219 -6.378906 L 1.511719 -5.78125 L 1.46875 -5.40625 L 1.46875 -4.570312 L 1.53125 -4.191406 L 1.46875 -3.398438 L 1.53125 -2.144531 L 1.429688 -1.75 L 1.511719 -1.371094 L 1.449219 -0.992188 Z M 5.683594 -6.777344 L 5.304688 -6.957031 L 5.066406 -7.351562 L 5.027344 -10.113281 L 5.265625 -10.550781 L 5.664062 -10.710938 L 6.160156 -10.75 L 7.75 -10.671875 L 8.089844 -10.492188 L 8.386719 -10.273438 L 8.703125 -9.976562 L 8.902344 -9.636719 L 9.082031 -8.703125 L 8.863281 -7.789062 L 8.40625 -7.234375 L 8.089844 -7.015625 L 7.769531 -6.835938 L 6.140625 -6.738281 Z M 5.683594 -6.777344 "/></g></g></g><g fill="#d56727" fill-opacity="1"><g transform="translate(128.843187, 97.24622)"><g><path d="M 4.570312 -0.554688 L 4.789062 -0.21875 L 5.167969 -0.0195312 L 5.882812 0.0195312 L 6.28125 -0.0195312 L 6.695312 0 L 7.253906 -0.0195312 L 7.847656 -0.21875 L 8.046875 -0.617188 L 8.046875 -0.953125 L 8.007812 -1.371094 L 8.027344 -1.75 L 8.007812 -2.105469 L 8.109375 -3.320312 L 8.046875 -3.734375 L 8.109375 -4.886719 L 8.027344 -5.246094 L 8.128906 -5.824219 L 8.824219 -7.035156 L 8.980469 -7.414062 L 9.199219 -7.75 L 9.699219 -8.40625 L 11.984375 -12.183594 L 12.222656 -12.480469 L 12.359375 -12.835938 L 12.640625 -13.3125 L 12.578125 -13.792969 L 12.203125 -13.949219 L 11.804688 -13.890625 L 11.027344 -13.949219 L 10.613281 -13.890625 L 9.855469 -13.890625 L 9.480469 -13.929688 L 8.980469 -13.730469 L 8.566406 -13.355469 L 8.226562 -12.679688 L 7.96875 -12.300781 L 7.847656 -11.921875 L 7.390625 -11.269531 L 7.09375 -10.550781 L 6.4375 -9.480469 L 6.160156 -9.4375 L 5.703125 -10.15625 L 5.523438 -10.511719 L 5.40625 -10.910156 L 4.410156 -12.660156 L 4.191406 -12.996094 L 4.035156 -13.394531 L 3.597656 -13.710938 L 3.101562 -13.929688 L 0.476562 -13.890625 L 0.0390625 -13.773438 L 0 -13.335938 L 0.199219 -12.855469 L 2.34375 -9.460938 L 2.503906 -9.121094 L 4.273438 -6.339844 L 4.429688 -5.824219 L 4.53125 -5.246094 L 4.511719 -3.675781 L 4.550781 -3.277344 L 4.570312 -2.902344 L 4.53125 -2.542969 L 4.511719 -1.789062 L 4.609375 -0.972656 Z M 4.570312 -0.554688 "/></g></g></g><g fill="#d56727" fill-opacity="1"><g transform="translate(141.481045, 97.24622)"><g><path d="M 0.714844 -6.082031 L 0.894531 -5.703125 L 1.253906 -5.464844 L 1.667969 -5.484375 L 2.085938 -5.445312 L 2.464844 -5.523438 L 3.257812 -5.464844 L 3.597656 -5.523438 L 4.949219 -5.523438 L 5.34375 -5.464844 L 6.519531 -5.484375 L 7.113281 -5.683594 L 7.351562 -6.101562 L 7.3125 -7.710938 L 7.175781 -8.148438 L 6.777344 -8.367188 L 4.769531 -8.347656 L 4.390625 -8.425781 L 2.085938 -8.386719 L 1.6875 -8.425781 L 1.3125 -8.386719 L 0.894531 -8.148438 L 0.714844 -7.769531 Z M 0.714844 -6.082031 "/></g></g></g><g fill="#d56727" fill-opacity="1"><g transform="translate(149.628091, 97.24622)"><g><path d="M 1.492188 -0.816406 L 1.6875 -0.199219 L 2.265625 0.0585938 L 2.664062 0 L 3.296875 0.0585938 L 3.617188 0.0195312 L 4.214844 0.0195312 L 4.847656 -0.179688 L 5.027344 -0.753906 L 5.027344 -1.429688 L 5.066406 -1.789062 L 5.007812 -2.207031 L 5.046875 -3.476562 L 5.226562 -3.875 L 5.605469 -4.09375 L 6.757812 -3.933594 L 7.152344 -3.597656 L 7.390625 -3.199219 L 7.550781 -2.839844 L 7.96875 -2.246094 L 8.347656 -1.53125 L 8.566406 -1.230469 L 8.722656 -0.835938 L 8.941406 -0.496094 L 9.378906 -0.140625 L 10.054688 0.0390625 L 11.625 0.0195312 L 12.003906 0.0585938 L 12.660156 0.0390625 L 13.035156 -0.140625 L 13.15625 -0.578125 L 12.9375 -1.011719 L 12.699219 -1.292969 L 12.539062 -1.667969 L 11.863281 -2.683594 L 11.683594 -3.039062 L 11.050781 -4.074219 L 10.808594 -4.371094 L 10.789062 -4.847656 L 10.96875 -5.285156 L 11.246094 -5.585938 L 11.527344 -5.824219 L 12.300781 -7.214844 L 12.558594 -8.367188 L 12.519531 -9.617188 L 12.460938 -10.015625 L 12.101562 -11.148438 L 11.941406 -11.484375 L 11.726562 -11.804688 L 10.59375 -12.996094 L 9.894531 -13.375 L 9.140625 -13.632812 L 8.007812 -13.890625 L 7.371094 -13.910156 L 6.796875 -13.871094 L 5.605469 -13.871094 L 5.207031 -13.949219 L 4.808594 -13.949219 L 4.453125 -13.851562 L 4.054688 -13.851562 L 3.65625 -13.929688 L 3.21875 -13.949219 L 2.046875 -13.851562 L 1.6875 -13.652344 L 1.449219 -13.097656 L 1.46875 -8.546875 L 1.511719 -8.148438 L 1.449219 -7.351562 L 1.46875 -6.914062 L 1.46875 -6.519531 L 1.511719 -6.140625 L 1.46875 -5.761719 L 1.449219 -4.152344 L 1.492188 -3.757812 Z M 5.605469 -7.273438 L 5.207031 -7.492188 L 5.046875 -7.808594 L 5.046875 -9.003906 L 5.007812 -9.339844 L 5.046875 -10.175781 L 5.226562 -10.550781 L 5.644531 -10.710938 L 6.042969 -10.691406 L 6.835938 -10.769531 L 7.390625 -10.652344 L 7.910156 -10.613281 L 8.285156 -10.511719 L 8.785156 -9.894531 L 8.902344 -9.578125 L 8.980469 -9.0625 L 8.921875 -8.464844 L 8.742188 -8.066406 L 8.523438 -7.769531 L 8.304688 -7.589844 L 7.949219 -7.433594 L 7.371094 -7.292969 L 6.996094 -7.273438 L 6.042969 -7.3125 Z M 5.605469 -7.273438 "/></g></g></g><g fill="#d56727" fill-opacity="1"><g transform="translate(163.418457, 97.24622)"><g><path d="M 5.34375 0.179688 L 6.914062 0.21875 L 7.3125 0.179688 L 7.710938 0.078125 L 8.109375 0.0195312 L 8.503906 -0.140625 L 8.863281 -0.179688 L 9.242188 -0.359375 L 10.59375 -1.171875 L 11.167969 -1.769531 L 11.367188 -2.046875 L 11.585938 -2.484375 L 11.703125 -2.839844 L 11.824219 -3.179688 L 11.941406 -4.171875 L 11.902344 -4.808594 L 11.605469 -5.960938 L 11.386719 -6.28125 L 10.871094 -6.875 L 10.511719 -7.195312 L 10.195312 -7.351562 L 9.835938 -7.570312 L 8.285156 -8.046875 L 7.890625 -8.109375 L 7.492188 -8.128906 L 7.074219 -8.207031 L 6.5 -8.207031 L 5.445312 -8.425781 L 4.710938 -8.785156 L 4.410156 -9.0625 L 4.332031 -9.65625 L 4.429688 -10.195312 L 4.671875 -10.453125 L 4.96875 -10.671875 L 5.285156 -10.851562 L 5.644531 -10.929688 L 6.28125 -10.949219 L 6.914062 -10.871094 L 7.273438 -10.769531 L 7.632812 -10.53125 L 7.96875 -10.253906 L 8.265625 -9.855469 L 8.703125 -9.597656 L 9.636719 -9.679688 L 10.175781 -9.636719 L 10.570312 -9.636719 L 10.929688 -9.597656 L 11.308594 -9.875 L 11.464844 -10.214844 L 11.386719 -10.59375 L 11.347656 -10.96875 L 10.789062 -12.003906 L 10.351562 -12.597656 L 9.042969 -13.511719 L 7.929688 -13.890625 L 7.152344 -14.050781 L 5.625 -14.089844 L 5.1875 -13.96875 L 4.789062 -13.949219 L 4.429688 -13.890625 L 3.675781 -13.652344 L 3 -13.253906 L 2.046875 -12.597656 L 1.351562 -11.664062 L 0.992188 -10.570312 L 0.933594 -9.597656 L 0.953125 -8.980469 L 1.09375 -8.1875 L 1.410156 -7.492188 L 2.144531 -6.578125 L 3.496094 -5.84375 L 4.214844 -5.605469 L 7.332031 -5.246094 L 8.046875 -4.910156 L 8.304688 -4.671875 L 8.425781 -4.171875 L 8.265625 -3.675781 L 8.007812 -3.378906 L 7.332031 -3.082031 L 6.71875 -3.039062 L 6.359375 -2.980469 L 5.34375 -3.082031 L 5.007812 -3.257812 L 4.671875 -3.476562 L 4.015625 -4.191406 L 3.617188 -4.351562 L 3.257812 -4.3125 L 2.882812 -4.371094 L 1.351562 -4.292969 L 0.992188 -4.132812 L 0.835938 -3.714844 L 0.894531 -3.320312 L 0.972656 -2.921875 L 1.09375 -2.5625 L 1.46875 -1.828125 L 1.75 -1.570312 L 2.007812 -1.273438 L 2.703125 -0.835938 L 2.980469 -0.535156 L 3.359375 -0.359375 L 3.757812 -0.238281 L 4.53125 0.0390625 Z M 5.34375 0.179688 "/></g></g></g><g fill="#d56727" fill-opacity="1"><g transform="translate(176.09606, 97.24622)"><g><path d="M 5.34375 0.179688 L 6.914062 0.21875 L 7.3125 0.179688 L 7.710938 0.078125 L 8.109375 0.0195312 L 8.503906 -0.140625 L 8.863281 -0.179688 L 9.242188 -0.359375 L 10.59375 -1.171875 L 11.167969 -1.769531 L 11.367188 -2.046875 L 11.585938 -2.484375 L 11.703125 -2.839844 L 11.824219 -3.179688 L 11.941406 -4.171875 L 11.902344 -4.808594 L 11.605469 -5.960938 L 11.386719 -6.28125 L 10.871094 -6.875 L 10.511719 -7.195312 L 10.195312 -7.351562 L 9.835938 -7.570312 L 8.285156 -8.046875 L 7.890625 -8.109375 L 7.492188 -8.128906 L 7.074219 -8.207031 L 6.5 -8.207031 L 5.445312 -8.425781 L 4.710938 -8.785156 L 4.410156 -9.0625 L 4.332031 -9.65625 L 4.429688 -10.195312 L 4.671875 -10.453125 L 4.96875 -10.671875 L 5.285156 -10.851562 L 5.644531 -10.929688 L 6.28125 -10.949219 L 6.914062 -10.871094 L 7.273438 -10.769531 L 7.632812 -10.53125 L 7.96875 -10.253906 L 8.265625 -9.855469 L 8.703125 -9.597656 L 9.636719 -9.679688 L 10.175781 -9.636719 L 10.570312 -9.636719 L 10.929688 -9.597656 L 11.308594 -9.875 L 11.464844 -10.214844 L 11.386719 -10.59375 L 11.347656 -10.96875 L 10.789062 -12.003906 L 10.351562 -12.597656 L 9.042969 -13.511719 L 7.929688 -13.890625 L 7.152344 -14.050781 L 5.625 -14.089844 L 5.1875 -13.96875 L 4.789062 -13.949219 L 4.429688 -13.890625 L 3.675781 -13.652344 L 3 -13.253906 L 2.046875 -12.597656 L 1.351562 -11.664062 L 0.992188 -10.570312 L 0.933594 -9.597656 L 0.953125 -8.980469 L 1.09375 -8.1875 L 1.410156 -7.492188 L 2.144531 -6.578125 L 3.496094 -5.84375 L 4.214844 -5.605469 L 7.332031 -5.246094 L 8.046875 -4.910156 L 8.304688 -4.671875 L 8.425781 -4.171875 L 8.265625 -3.675781 L 8.007812 -3.378906 L 7.332031 -3.082031 L 6.71875 -3.039062 L 6.359375 -2.980469 L 5.34375 -3.082031 L 5.007812 -3.257812 L 4.671875 -3.476562 L 4.015625 -4.191406 L 3.617188 -4.351562 L 3.257812 -4.3125 L 2.882812 -4.371094 L 1.351562 -4.292969 L 0.992188 -4.132812 L 0.835938 -3.714844 L 0.894531 -3.320312 L 0.972656 -2.921875 L 1.09375 -2.5625 L 1.46875 -1.828125 L 1.75 -1.570312 L 2.007812 -1.273438 L 2.703125 -0.835938 L 2.980469 -0.535156 L 3.359375 -0.359375 L 3.757812 -0.238281 L 4.53125 0.0390625 Z M 5.34375 0.179688 "/></g></g></g></svg>