<svg xmlns="http://www.w3.org/2000/svg" xmlns:xlink="http://www.w3.org/1999/xlink" width="500" zoomAndPan="magnify" viewBox="0 0 375 374.999991" height="500" preserveAspectRatio="xMidYMid meet" version="1.0"><defs><g/><clipPath id="eee93164b2"><path d="M 115.59375 68.46875 L 259.59375 68.46875 L 259.59375 218.46875 L 115.59375 218.46875 Z M 115.59375 68.46875 " clip-rule="nonzero"/></clipPath></defs><rect x="-37.5" width="450" fill="#ffffff" y="-37.499999" height="449.999989" fill-opacity="1"/><rect x="-37.5" width="450" fill="#ffffff" y="-37.499999" height="449.999989" fill-opacity="1"/><g clip-path="url(#eee93164b2)"><path fill="#5271ff" d="M 243.917969 218.46875 L 131.269531 218.46875 C 122.640625 218.46875 115.625 211.457031 115.625 202.84375 L 115.625 84.09375 C 115.625 75.480469 122.640625 68.46875 131.269531 68.46875 L 243.917969 68.46875 C 252.546875 68.46875 259.5625 75.480469 259.5625 84.09375 L 259.5625 202.84375 C 259.5625 211.464844 252.546875 218.46875 243.917969 218.46875 Z M 131.269531 74.71875 C 126.09375 74.71875 121.882812 78.925781 121.882812 84.09375 L 121.882812 202.84375 C 121.882812 208.019531 126.09375 212.21875 131.269531 212.21875 L 243.917969 212.21875 C 249.09375 212.21875 253.304688 208.011719 253.304688 202.84375 L 253.304688 84.09375 C 253.304688 78.925781 249.09375 74.71875 243.917969 74.71875 Z M 131.269531 74.71875 " fill-opacity="1" fill-rule="nonzero"/></g><path fill="#5271ff" d="M 150.042969 118.46875 C 148.316406 118.46875 146.914062 117.074219 146.914062 115.34375 L 146.914062 84.09375 C 146.914062 82.371094 148.316406 80.96875 150.042969 80.96875 C 151.773438 80.96875 153.175781 82.371094 153.175781 84.09375 L 153.175781 115.34375 C 153.175781 117.074219 151.773438 118.46875 150.042969 118.46875 Z M 150.042969 118.46875 " fill-opacity="1" fill-rule="nonzero"/><path fill="#5271ff" d="M 150.042969 155.96875 C 148.316406 155.96875 146.914062 154.570312 146.914062 152.84375 L 146.914062 127.84375 C 146.914062 126.121094 148.316406 124.71875 150.042969 124.71875 C 151.773438 124.71875 153.175781 126.121094 153.175781 127.84375 L 153.175781 152.84375 C 153.175781 154.574219 151.773438 155.96875 150.042969 155.96875 Z M 150.042969 155.96875 " fill-opacity="1" fill-rule="nonzero"/><path fill="#5271ff" d="M 187.59375 155.96875 C 185.867188 155.96875 184.464844 154.570312 184.464844 152.84375 L 184.464844 140.34375 C 184.464844 138.621094 185.867188 137.21875 187.59375 137.21875 C 189.320312 137.21875 190.722656 138.621094 190.722656 140.34375 L 190.722656 152.84375 C 190.722656 154.574219 189.320312 155.96875 187.59375 155.96875 Z M 187.59375 155.96875 " fill-opacity="1" fill-rule="nonzero"/><path fill="#5271ff" d="M 187.59375 130.96875 C 185.867188 130.96875 184.464844 129.570312 184.464844 127.84375 L 184.464844 84.09375 C 184.464844 82.371094 185.867188 80.96875 187.59375 80.96875 C 189.320312 80.96875 190.722656 82.371094 190.722656 84.09375 L 190.722656 127.84375 C 190.722656 129.574219 189.320312 130.96875 187.59375 130.96875 Z M 187.59375 130.96875 " fill-opacity="1" fill-rule="nonzero"/><path fill="#5271ff" d="M 200.109375 143.46875 L 175.078125 143.46875 C 173.351562 143.46875 171.949219 142.070312 171.949219 140.34375 L 171.949219 127.84375 C 171.949219 126.121094 173.351562 124.71875 175.078125 124.71875 L 200.109375 124.71875 C 201.835938 124.71875 203.238281 126.121094 203.238281 127.84375 L 203.238281 140.34375 C 203.238281 142.074219 201.835938 143.46875 200.109375 143.46875 Z M 178.207031 137.21875 L 196.980469 137.21875 L 196.980469 130.96875 L 178.207031 130.96875 Z M 178.207031 137.21875 " fill-opacity="1" fill-rule="nonzero"/><path fill="#5271ff" d="M 225.144531 155.96875 C 223.414062 155.96875 222.011719 154.570312 222.011719 152.84375 L 222.011719 109.09375 C 222.011719 107.371094 223.414062 105.96875 225.144531 105.96875 C 226.871094 105.96875 228.273438 107.371094 228.273438 109.09375 L 228.273438 152.84375 C 228.273438 154.574219 226.871094 155.96875 225.144531 155.96875 Z M 225.144531 155.96875 " fill-opacity="1" fill-rule="nonzero"/><path fill="#5271ff" d="M 225.144531 99.71875 C 223.414062 99.71875 222.011719 98.320312 222.011719 96.59375 L 222.011719 84.09375 C 222.011719 82.371094 223.414062 80.96875 225.144531 80.96875 C 226.871094 80.96875 228.273438 82.371094 228.273438 84.09375 L 228.273438 96.59375 C 228.273438 98.324219 226.871094 99.71875 225.144531 99.71875 Z M 225.144531 99.71875 " fill-opacity="1" fill-rule="nonzero"/><path fill="#5271ff" d="M 237.660156 112.21875 L 212.625 112.21875 C 210.898438 112.21875 209.496094 110.820312 209.496094 109.09375 L 209.496094 96.59375 C 209.496094 94.871094 210.898438 93.46875 212.625 93.46875 L 237.660156 93.46875 C 239.386719 93.46875 240.789062 94.871094 240.789062 96.59375 L 240.789062 109.09375 C 240.789062 110.824219 239.386719 112.21875 237.660156 112.21875 Z M 215.753906 105.96875 L 234.53125 105.96875 L 234.53125 99.71875 L 215.753906 99.71875 Z M 215.753906 105.96875 " fill-opacity="1" fill-rule="nonzero"/><path fill="#5271ff" d="M 162.5625 130.96875 L 137.527344 130.96875 C 135.800781 130.96875 134.398438 129.570312 134.398438 127.84375 L 134.398438 115.34375 C 134.398438 113.621094 135.800781 112.21875 137.527344 112.21875 L 162.5625 112.21875 C 164.289062 112.21875 165.691406 113.621094 165.691406 115.34375 L 165.691406 127.84375 C 165.691406 129.574219 164.289062 130.96875 162.5625 130.96875 Z M 140.65625 124.71875 L 159.433594 124.71875 L 159.433594 118.46875 L 140.65625 118.46875 Z M 140.65625 124.71875 " fill-opacity="1" fill-rule="nonzero"/><path fill="#5271ff" d="M 225.40625 199.71875 C 216.777344 199.71875 209.761719 192.707031 209.761719 184.09375 C 209.761719 175.480469 216.777344 168.46875 225.40625 168.46875 C 234.035156 168.46875 241.050781 175.480469 241.050781 184.09375 C 241.050781 192.707031 234.035156 199.71875 225.40625 199.71875 Z M 225.40625 174.71875 C 220.230469 174.71875 216.019531 178.925781 216.019531 184.09375 C 216.019531 189.261719 220.230469 193.46875 225.40625 193.46875 C 230.582031 193.46875 234.792969 189.261719 234.792969 184.09375 C 234.792969 178.925781 230.582031 174.71875 225.40625 174.71875 Z M 225.40625 174.71875 " fill-opacity="1" fill-rule="nonzero"/><path fill="#5271ff" d="M 187.59375 199.71875 C 178.964844 199.71875 171.949219 192.707031 171.949219 184.09375 C 171.949219 175.480469 178.964844 168.46875 187.59375 168.46875 C 196.222656 168.46875 203.238281 175.480469 203.238281 184.09375 C 203.238281 192.707031 196.222656 199.71875 187.59375 199.71875 Z M 187.59375 174.71875 C 182.417969 174.71875 178.207031 178.925781 178.207031 184.09375 C 178.207031 189.261719 182.417969 193.46875 187.59375 193.46875 C 192.769531 193.46875 196.980469 189.261719 196.980469 184.09375 C 196.980469 178.925781 192.769531 174.71875 187.59375 174.71875 Z M 187.59375 174.71875 " fill-opacity="1" fill-rule="nonzero"/><path fill="#5271ff" d="M 150.042969 199.71875 C 141.414062 199.71875 134.398438 192.707031 134.398438 184.09375 C 134.398438 175.480469 141.414062 168.46875 150.042969 168.46875 C 158.675781 168.46875 165.691406 175.480469 165.691406 184.09375 C 165.691406 192.707031 158.675781 199.71875 150.042969 199.71875 Z M 150.042969 174.71875 C 144.871094 174.71875 140.65625 178.925781 140.65625 184.09375 C 140.65625 189.261719 144.871094 193.46875 150.042969 193.46875 C 155.21875 193.46875 159.433594 189.261719 159.433594 184.09375 C 159.433594 178.925781 155.21875 174.71875 150.042969 174.71875 Z M 150.042969 174.71875 " fill-opacity="1" fill-rule="nonzero"/><g fill="#000000" fill-opacity="1"><g transform="translate(100.94531, 270.011452)"><g><path d="M 25.265625 0 L 25.265625 -9.421875 C 25.265625 -10.585938 25.304688 -11.785156 25.390625 -13.015625 C 25.484375 -14.242188 25.582031 -15.273438 25.6875 -16.109375 C 25.789062 -16.941406 25.851562 -17.472656 25.875 -17.703125 L 25.71875 -17.703125 L 20.90625 0 L 14.328125 0 L 9.46875 -17.671875 L 9.3125 -17.671875 C 9.332031 -17.441406 9.398438 -16.914062 9.515625 -16.09375 C 9.628906 -15.269531 9.738281 -14.242188 9.84375 -13.015625 C 9.945312 -11.785156 10 -10.585938 10 -9.421875 L 10 0 L 2.28125 0 L 2.28125 -26.140625 L 14.140625 -26.140625 L 18.09375 -11.0625 L 18.234375 -11.0625 L 22.15625 -26.140625 L 33.59375 -26.140625 L 33.59375 0 Z M 25.265625 0 "/></g></g></g><g fill="#000000" fill-opacity="1"><g transform="translate(136.809982, 270.011452)"><g><path d="M 16.828125 0 L 16.34375 -3.046875 C 15.550781 -1.953125 14.515625 -1.09375 13.234375 -0.46875 C 11.960938 0.144531 10.617188 0.453125 9.203125 0.453125 C 6.867188 0.453125 5.117188 -0.191406 3.953125 -1.484375 C 2.785156 -2.773438 2.203125 -4.632812 2.203125 -7.0625 L 2.203125 -20.0625 L 9.765625 -20.0625 L 9.765625 -7.984375 C 9.765625 -7.117188 9.984375 -6.425781 10.421875 -5.90625 C 10.867188 -5.382812 11.5 -5.125 12.3125 -5.125 C 13.25 -5.125 14.007812 -5.425781 14.59375 -6.03125 C 15.175781 -6.644531 15.46875 -7.394531 15.46875 -8.28125 L 15.46875 -20.0625 L 23.03125 -20.0625 L 23.03125 0 Z M 16.828125 0 "/></g></g></g><g fill="#000000" fill-opacity="1"><g transform="translate(162.150805, 270.011452)"><g><path d="M 11.8125 -20.515625 C 14.5 -20.515625 16.773438 -19.988281 18.640625 -18.9375 C 20.503906 -17.882812 21.4375 -16.257812 21.4375 -14.0625 L 14.40625 -14.0625 C 14.40625 -14.789062 14.070312 -15.3125 13.40625 -15.625 C 12.957031 -15.875 12.390625 -16 11.703125 -16 C 9.878906 -16 8.96875 -15.566406 8.96875 -14.703125 C 8.96875 -14.222656 9.285156 -13.878906 9.921875 -13.671875 C 10.554688 -13.472656 11.59375 -13.257812 13.03125 -13.03125 C 14.800781 -12.78125 16.28125 -12.484375 17.46875 -12.140625 C 18.664062 -11.796875 19.707031 -11.1875 20.59375 -10.3125 C 21.476562 -9.4375 21.921875 -8.21875 21.921875 -6.65625 C 21.921875 -4.09375 20.960938 -2.265625 19.046875 -1.171875 C 17.140625 -0.0859375 14.640625 0.453125 11.546875 0.453125 C 9.773438 0.453125 8.101562 0.207031 6.53125 -0.28125 C 4.96875 -0.78125 3.691406 -1.546875 2.703125 -2.578125 C 1.710938 -3.617188 1.21875 -4.9375 1.21875 -6.53125 L 8.25 -6.53125 L 8.25 -6.390625 C 8.269531 -5.523438 8.628906 -4.921875 9.328125 -4.578125 C 10.023438 -4.234375 10.765625 -4.0625 11.546875 -4.0625 C 13.648438 -4.0625 14.703125 -4.554688 14.703125 -5.546875 C 14.703125 -6.054688 14.375 -6.421875 13.71875 -6.640625 C 13.0625 -6.867188 11.984375 -7.113281 10.484375 -7.375 C 8.691406 -7.675781 7.21875 -8.003906 6.0625 -8.359375 C 4.90625 -8.710938 3.894531 -9.3125 3.03125 -10.15625 C 2.175781 -11.007812 1.75 -12.195312 1.75 -13.71875 C 1.75 -16.175781 2.675781 -17.921875 4.53125 -18.953125 C 6.394531 -19.992188 8.820312 -20.515625 11.8125 -20.515625 Z M 11.8125 -20.515625 "/></g></g></g><g fill="#000000" fill-opacity="1"><g transform="translate(185.364056, 270.011452)"><g><path d="M 2.546875 -22.421875 L 2.546875 -27.546875 L 10.109375 -27.546875 L 10.109375 -22.421875 Z M 2.546875 0 L 2.546875 -20.0625 L 10.109375 -20.0625 L 10.109375 0 Z M 2.546875 0 "/></g></g></g><g fill="#000000" fill-opacity="1"><g transform="translate(198.015476, 270.011452)"><g><path d="M 9.84375 -20.515625 C 12.625 -20.515625 14.75 -19.414062 16.21875 -17.21875 L 16.875 -20.0625 L 23.03125 -20.0625 L 23.03125 7.484375 L 15.46875 7.484375 L 15.46875 -1.828125 C 14.050781 -0.304688 12.175781 0.453125 9.84375 0.453125 C 7.132812 0.453125 5.046875 -0.425781 3.578125 -2.1875 C 2.109375 -3.945312 1.375 -6.550781 1.375 -10 C 1.375 -13.46875 2.109375 -16.085938 3.578125 -17.859375 C 5.046875 -19.628906 7.132812 -20.515625 9.84375 -20.515625 Z M 12.203125 -14.9375 C 10.023438 -14.9375 8.9375 -13.644531 8.9375 -11.0625 L 8.9375 -9.046875 C 8.9375 -6.429688 10.023438 -5.125 12.203125 -5.125 C 13.316406 -5.125 14.148438 -5.523438 14.703125 -6.328125 C 15.265625 -7.128906 15.546875 -8.160156 15.546875 -9.421875 L 15.546875 -10.671875 C 15.546875 -11.941406 15.265625 -12.96875 14.703125 -13.75 C 14.148438 -14.539062 13.316406 -14.9375 12.203125 -14.9375 Z M 12.203125 -14.9375 "/></g></g></g><g fill="#000000" fill-opacity="1"><g transform="translate(223.356299, 270.011452)"><g><path d="M 16.828125 0 L 16.34375 -3.046875 C 15.550781 -1.953125 14.515625 -1.09375 13.234375 -0.46875 C 11.960938 0.144531 10.617188 0.453125 9.203125 0.453125 C 6.867188 0.453125 5.117188 -0.191406 3.953125 -1.484375 C 2.785156 -2.773438 2.203125 -4.632812 2.203125 -7.0625 L 2.203125 -20.0625 L 9.765625 -20.0625 L 9.765625 -7.984375 C 9.765625 -7.117188 9.984375 -6.425781 10.421875 -5.90625 C 10.867188 -5.382812 11.5 -5.125 12.3125 -5.125 C 13.25 -5.125 14.007812 -5.425781 14.59375 -6.03125 C 15.175781 -6.644531 15.46875 -7.394531 15.46875 -8.28125 L 15.46875 -20.0625 L 23.03125 -20.0625 L 23.03125 0 Z M 16.828125 0 "/></g></g></g><g fill="#000000" fill-opacity="1"><g transform="translate(248.697122, 270.011452)"><g><path d="M 12.65625 -20.515625 C 16.320312 -20.515625 19.125 -19.65625 21.0625 -17.9375 C 23.007812 -16.21875 23.984375 -13.582031 23.984375 -10.03125 L 23.984375 -8.734375 L 8.9375 -8.734375 C 8.9375 -7.296875 9.257812 -6.207031 9.90625 -5.46875 C 10.550781 -4.738281 11.566406 -4.375 12.953125 -4.375 C 14.222656 -4.375 15.15625 -4.640625 15.75 -5.171875 C 16.34375 -5.703125 16.640625 -6.410156 16.640625 -7.296875 L 23.984375 -7.296875 C 23.984375 -4.859375 23.054688 -2.957031 21.203125 -1.59375 C 19.359375 -0.226562 16.660156 0.453125 13.109375 0.453125 C 9.390625 0.453125 6.503906 -0.410156 4.453125 -2.140625 C 2.398438 -3.878906 1.375 -6.507812 1.375 -10.03125 C 1.375 -13.476562 2.375 -16.085938 4.375 -17.859375 C 6.375 -19.628906 9.132812 -20.515625 12.65625 -20.515625 Z M 12.953125 -15.6875 C 10.578125 -15.6875 9.25 -14.5625 8.96875 -12.3125 L 16.34375 -12.3125 C 16.34375 -13.351562 16.039062 -14.175781 15.4375 -14.78125 C 14.84375 -15.382812 14.015625 -15.6875 12.953125 -15.6875 Z M 12.953125 -15.6875 "/></g></g></g></svg>